<svg id="svg" version="1.1" xmlns="http://www.w3.org/2000/svg" xmlns:xlink="http://www.w3.org/1999/xlink" width="400" height="526.027397260274" viewBox="0, 0, 400,526.027397260274"><g id="svgg"><path id="path0" d="M43.000 7.220 C 26.431 7.460,25.228 7.611,24.209 9.583 C 23.883 10.213,22.626 11.767,21.415 13.037 C 19.082 15.485,18.014 17.983,17.986 21.062 C 17.957 24.168,15.872 30.615,14.377 32.218 C 13.847 32.787,13.370 34.495,12.813 37.818 C 11.566 45.265,10.792 48.034,9.482 49.739 C 8.069 51.579,7.003 55.429,6.337 61.102 C 5.990 64.054,5.599 65.623,4.938 66.702 C 4.433 67.526,3.818 68.695,3.571 69.300 C 3.189 70.235,2.888 70.400,1.561 70.400 L 0.000 70.400 0.000 73.400 L 0.000 76.400 1.573 76.400 C 2.896 76.400,3.288 76.606,4.044 77.700 C 6.098 80.674,8.163 82.000,10.736 82.000 C 12.483 82.000,17.218 82.793,19.281 83.431 C 19.656 83.547,20.626 84.545,21.436 85.649 L 22.910 87.657 23.225 95.128 C 23.429 99.962,23.761 103.306,24.166 104.600 C 24.510 105.700,24.793 107.964,24.796 109.630 C 24.799 111.895,25.069 113.411,25.866 115.630 C 26.739 118.064,26.982 119.611,27.210 124.200 C 27.362 127.280,27.685 130.790,27.927 132.000 C 28.169 133.210,28.567 139.060,28.812 145.000 C 29.057 150.940,29.423 157.240,29.626 159.000 C 29.828 160.760,29.995 163.415,29.997 164.900 C 29.999 166.385,30.151 167.600,30.336 167.600 C 32.064 167.600,33.329 177.360,34.016 196.000 C 34.231 201.830,34.615 208.310,34.869 210.400 C 35.123 212.490,35.408 216.045,35.502 218.300 C 35.596 220.555,35.828 222.400,36.018 222.400 C 37.740 222.400,38.527 227.901,39.165 244.400 C 39.830 261.571,39.922 262.871,40.972 269.827 C 41.644 274.278,42.305 277.272,42.872 278.427 C 43.843 280.409,43.959 281.830,44.971 304.200 C 45.290 311.240,45.737 317.720,45.966 318.600 C 46.194 319.480,46.385 321.598,46.390 323.306 C 46.400 326.384,47.159 330.163,48.285 332.732 C 48.605 333.465,48.956 335.805,49.065 337.932 C 49.173 340.059,49.505 343.060,49.803 344.600 C 50.102 346.140,50.555 353.070,50.811 360.000 C 51.066 366.930,51.467 373.229,51.701 373.997 C 51.935 374.766,52.085 376.532,52.035 377.921 C 51.972 379.660,52.190 381.094,52.736 382.524 C 53.966 385.745,54.811 390.298,54.805 393.675 C 54.802 395.367,55.052 397.887,55.360 399.275 C 55.730 400.940,56.001 405.750,56.156 413.400 C 56.324 421.661,56.564 425.691,56.990 427.400 C 57.319 428.720,57.590 431.111,57.594 432.713 C 57.599 435.029,57.808 436.036,58.613 437.625 C 60.150 440.660,60.361 442.493,61.209 460.200 C 61.641 469.220,62.262 478.310,62.590 480.400 C 62.918 482.490,63.189 485.753,63.193 487.651 C 63.198 490.289,63.348 491.225,63.826 491.622 C 64.999 492.595,65.608 494.372,65.836 497.488 C 66.328 504.216,67.932 509.867,69.457 510.250 C 69.976 510.380,70.400 510.716,70.400 510.997 C 70.400 512.687,78.877 520.000,80.835 520.000 C 83.191 520.000,88.400 523.185,88.400 524.627 L 88.400 526.000 210.200 526.000 L 332.000 526.000 332.000 524.486 C 332.000 522.962,336.725 520.000,339.154 520.000 C 341.355 520.000,343.564 518.728,344.415 516.970 C 344.886 515.996,345.525 515.200,345.836 515.200 C 346.146 515.200,346.400 515.038,346.400 514.839 C 346.400 514.641,346.896 514.305,347.503 514.094 C 348.585 513.717,348.824 513.376,350.196 510.262 C 350.569 509.416,351.494 508.066,352.251 507.263 C 355.191 504.147,355.296 503.194,356.230 471.000 C 356.473 462.631,357.163 459.168,358.820 458.000 C 358.976 457.890,359.202 453.930,359.323 449.200 C 359.466 443.582,359.755 439.698,360.157 438.000 C 360.657 435.885,360.776 432.267,360.792 418.600 C 360.808 405.357,360.935 401.292,361.392 399.400 C 361.782 397.787,361.979 394.640,361.995 389.800 C 362.008 385.840,362.207 381.880,362.437 381.000 C 362.667 380.120,362.960 378.950,363.087 378.400 C 363.215 377.850,363.652 376.971,364.059 376.446 C 364.703 375.617,364.800 374.725,364.800 369.643 C 364.800 366.427,364.981 363.166,365.202 362.397 C 365.423 361.629,365.788 352.450,366.012 342.000 C 366.254 330.676,366.657 320.899,367.010 317.800 C 367.335 314.940,367.674 310.080,367.763 307.000 C 367.905 302.097,368.064 301.027,369.039 298.400 C 370.072 295.618,370.172 294.820,370.414 287.400 C 370.557 283.000,370.875 278.799,371.120 278.064 C 371.382 277.278,371.580 273.411,371.603 268.664 C 371.624 264.229,371.830 255.830,372.062 250.000 C 372.293 244.170,372.599 235.170,372.741 230.000 C 373.007 220.354,373.042 220.144,374.835 217.600 C 375.437 216.744,375.568 215.358,375.736 208.000 C 375.844 203.270,376.124 198.680,376.359 197.800 C 376.609 196.862,376.889 188.922,377.037 178.600 C 377.175 168.920,377.466 160.280,377.683 159.400 C 377.899 158.520,378.221 153.750,378.398 148.800 C 378.717 139.863,379.183 136.864,380.498 135.284 C 380.831 134.883,381.084 132.448,381.249 128.040 C 381.386 124.388,381.702 117.800,381.951 113.400 C 382.200 109.000,382.540 101.620,382.707 97.000 C 382.950 90.240,383.145 88.334,383.705 87.239 C 384.087 86.490,384.400 85.669,384.400 85.414 C 384.400 83.827,389.446 82.316,396.500 81.789 L 400.000 81.528 400.000 66.388 L 400.000 51.248 398.531 51.124 C 395.922 50.904,394.731 48.235,393.410 39.653 C 392.755 35.398,392.179 33.829,390.560 31.888 C 390.049 31.277,389.514 30.107,389.371 29.288 C 389.228 28.470,388.655 25.550,388.098 22.800 C 387.541 20.050,387.002 17.219,386.900 16.510 C 386.771 15.607,386.058 14.586,384.529 13.110 C 383.327 11.949,382.114 10.460,381.832 9.800 C 381.410 8.810,380.873 8.460,378.760 7.800 C 376.195 6.998,92.180 6.508,43.000 7.220 M369.371 26.905 C 372.214 27.914,372.687 28.508,373.390 31.947 C 373.733 33.626,374.283 36.260,374.612 37.800 C 374.941 39.340,375.208 40.948,375.205 41.374 C 375.202 41.800,375.593 42.566,376.073 43.077 C 378.262 45.407,379.617 50.848,379.626 57.341 L 379.634 62.953 378.210 64.376 L 376.787 65.800 203.357 65.901 C 49.581 65.991,29.783 65.934,28.657 65.400 C 24.698 63.522,25.215 49.167,29.450 43.400 C 30.596 41.839,31.541 38.282,31.989 33.846 C 32.527 28.518,33.669 27.384,39.600 26.290 C 43.162 25.634,367.491 26.238,369.371 26.905 M361.897 83.212 C 365.377 84.951,365.407 85.011,365.354 90.161 C 365.274 97.739,364.532 107.712,363.906 109.600 C 363.430 111.035,363.257 115.052,363.050 129.400 C 362.907 139.300,362.615 149.020,362.402 151.000 C 362.189 152.980,362.011 157.509,362.007 161.064 C 362.000 167.758,361.195 171.720,359.729 172.282 C 359.327 172.437,359.198 173.791,359.192 177.943 C 359.188 180.944,358.929 185.920,358.617 189.000 C 358.303 192.107,357.936 201.812,357.794 210.800 C 357.625 221.475,357.349 228.159,356.986 230.400 C 356.682 232.270,356.367 237.615,356.285 242.279 C 356.136 250.711,356.129 250.769,354.995 252.879 C 353.896 254.922,353.844 255.271,353.587 262.400 C 353.441 266.470,353.119 271.510,352.873 273.600 C 352.627 275.690,352.220 284.510,351.969 293.200 C 350.871 331.276,350.981 329.645,349.160 334.976 C 348.484 336.956,348.360 338.253,348.416 342.776 C 348.471 347.238,348.356 348.484,347.764 349.800 C 346.967 351.573,347.025 350.413,346.346 378.000 C 345.553 410.233,345.392 412.045,343.203 413.398 C 342.965 413.545,342.790 415.971,342.775 419.324 C 342.762 422.446,342.575 426.350,342.361 428.000 C 342.147 429.650,341.805 435.950,341.603 442.000 C 340.057 488.141,339.765 492.381,337.944 495.120 C 337.315 496.066,336.800 497.101,336.800 497.420 C 336.800 498.881,333.926 503.581,332.485 504.477 L 331.000 505.400 210.486 505.503 C 100.008 505.598,89.866 505.552,88.686 504.958 C 87.295 504.256,85.601 502.544,85.599 501.838 C 85.598 501.597,85.103 501.067,84.499 500.660 C 82.043 499.007,81.958 498.682,81.344 488.666 C 81.032 483.570,80.508 477.240,80.181 474.600 C 79.854 471.960,79.589 468.225,79.593 466.300 C 79.597 464.375,79.435 462.800,79.233 462.800 C 77.169 462.800,76.570 457.173,75.251 425.400 C 74.916 417.352,74.339 413.862,72.106 406.400 C 71.260 403.574,70.927 398.890,70.400 382.400 C 70.114 373.485,69.775 368.155,69.385 366.475 C 69.063 365.087,68.800 363.262,68.800 362.420 C 68.800 361.579,68.346 359.385,67.792 357.545 C 66.028 351.694,65.666 348.306,65.013 331.600 C 64.594 320.845,64.181 314.526,63.787 312.800 C 63.461 311.370,63.195 308.841,63.197 307.180 C 63.198 305.519,63.042 303.989,62.850 303.780 C 62.053 302.917,60.842 297.963,60.605 294.600 C 60.466 292.620,60.184 289.470,59.978 287.600 C 59.773 285.730,59.523 282.040,59.423 279.400 C 58.923 266.157,58.375 257.186,58.008 256.221 C 57.784 255.631,57.600 253.940,57.600 252.463 C 57.600 250.642,57.393 249.482,56.956 248.858 C 55.887 247.332,55.237 244.099,54.812 238.200 C 54.591 235.120,54.233 231.250,54.017 229.600 C 53.801 227.950,53.616 222.730,53.605 218.000 C 53.590 211.424,53.401 208.270,52.800 204.600 C 52.368 201.960,52.011 198.607,52.007 197.149 C 52.002 195.381,51.815 194.344,51.444 194.036 C 49.469 192.398,49.133 189.662,48.584 170.800 C 48.347 162.640,47.688 153.500,47.229 152.003 C 46.993 151.234,46.800 149.863,46.800 148.955 C 46.800 146.387,45.669 140.399,44.792 138.326 C 44.182 136.883,44.000 135.542,44.000 132.499 C 44.000 130.326,43.829 127.569,43.619 126.373 C 43.410 125.178,43.044 119.070,42.808 112.800 C 42.571 106.530,42.200 100.399,41.984 99.176 C 40.462 90.583,41.809 84.685,45.800 82.469 C 46.383 82.145,89.108 82.021,203.036 82.012 L 359.472 82.000 361.897 83.212 M197.400 172.003 C 196.520 172.196,194.896 172.364,193.791 172.377 C 191.604 172.402,185.462 173.850,180.968 175.399 C 179.402 175.939,175.914 176.637,173.168 176.960 C 168.112 177.554,166.800 177.848,166.800 178.389 C 166.800 179.486,163.515 182.000,162.080 182.000 C 160.583 182.000,156.984 183.777,155.559 185.220 C 154.598 186.193,153.599 186.767,152.559 186.945 C 150.816 187.243,149.241 188.463,148.522 190.071 C 148.259 190.659,147.179 191.642,146.122 192.255 C 145.065 192.869,144.140 193.512,144.067 193.685 C 143.993 193.858,143.658 194.000,143.322 194.000 C 142.985 194.000,141.580 195.125,140.198 196.500 C 138.817 197.875,136.963 199.540,136.077 200.200 C 135.192 200.860,134.282 201.791,134.056 202.269 C 133.484 203.479,132.568 204.596,129.857 207.387 C 128.568 208.714,127.194 210.532,126.803 211.426 C 126.143 212.935,123.980 215.200,123.198 215.200 C 123.011 215.200,122.633 216.235,122.359 217.500 C 121.688 220.594,120.177 223.865,119.089 224.579 C 117.527 225.603,116.351 228.784,115.399 234.558 C 115.140 236.130,114.434 237.528,113.159 239.000 C 110.590 241.965,109.630 258.144,110.704 280.400 C 111.113 288.893,111.474 290.640,113.202 292.495 C 114.411 293.792,115.285 295.965,115.815 298.990 C 116.650 303.762,117.188 305.204,118.775 306.936 C 120.498 308.816,121.665 311.201,122.400 314.343 C 122.804 316.074,123.148 316.633,124.188 317.246 C 124.897 317.664,125.948 318.873,126.525 319.933 C 127.102 320.993,128.570 322.720,129.787 323.771 C 131.004 324.822,132.000 325.862,132.000 326.083 C 132.000 326.866,142.048 337.600,142.781 337.600 C 142.944 337.600,143.493 337.960,144.000 338.400 C 144.507 338.840,145.220 339.200,145.583 339.200 C 146.421 339.200,148.800 341.628,148.800 342.483 C 148.800 343.070,151.674 344.800,152.649 344.800 C 153.334 344.800,155.780 346.793,156.075 347.592 C 156.254 348.076,156.915 348.457,157.879 348.632 C 161.522 349.293,165.206 351.033,166.205 352.566 C 167.077 353.904,169.019 354.431,177.400 355.601 C 179.816 355.939,181.483 356.411,182.469 357.037 C 183.407 357.633,185.068 358.125,187.069 358.399 C 194.827 359.464,195.904 359.626,197.600 359.985 C 199.987 360.489,206.194 360.484,208.200 359.975 C 209.080 359.752,211.150 359.412,212.800 359.219 C 219.944 358.383,222.024 357.959,223.331 357.073 C 224.325 356.398,226.132 355.942,230.432 355.280 C 237.753 354.152,238.908 353.826,239.402 352.741 C 239.621 352.259,240.160 351.671,240.600 351.433 C 241.040 351.195,241.490 350.893,241.600 350.763 C 241.887 350.423,246.835 348.800,247.584 348.800 C 247.929 348.800,248.966 348.022,249.887 347.071 C 250.989 345.934,252.292 345.095,253.694 344.618 C 255.432 344.027,256.083 343.529,257.213 341.922 C 258.227 340.482,259.173 339.691,260.727 338.985 C 262.091 338.367,263.931 336.940,265.854 335.010 C 267.505 333.355,268.984 332.000,269.141 332.000 C 269.299 332.000,269.746 331.460,270.136 330.800 C 270.526 330.140,271.013 329.600,271.218 329.600 C 271.422 329.600,272.037 328.892,272.583 328.027 C 273.129 327.161,274.842 325.136,276.390 323.527 C 277.937 321.917,279.394 320.024,279.626 319.319 C 279.859 318.615,280.390 317.930,280.807 317.798 C 282.227 317.347,283.443 315.358,284.160 312.315 C 284.751 309.803,285.144 309.027,286.583 307.525 C 288.639 305.379,289.200 304.406,289.200 302.984 C 289.200 300.103,291.542 293.343,292.970 292.101 C 294.069 291.145,294.657 287.643,294.999 280.000 C 295.122 277.250,295.416 272.999,295.652 270.554 C 295.972 267.230,295.956 264.857,295.589 261.154 C 295.319 258.429,295.035 253.696,294.959 250.634 C 294.802 244.307,293.925 239.757,292.792 239.398 C 291.711 239.054,289.200 231.623,289.200 228.766 C 289.200 227.387,288.279 225.807,286.686 224.452 C 285.380 223.342,284.606 221.947,284.215 220.000 C 283.463 216.251,283.207 215.741,281.449 214.478 C 280.482 213.784,279.578 212.768,279.441 212.222 C 279.304 211.675,278.744 210.780,278.196 210.232 C 277.648 209.685,277.200 209.068,277.200 208.862 C 277.200 208.655,276.750 208.374,276.200 208.236 C 275.650 208.098,275.200 207.814,275.200 207.606 C 275.200 207.398,274.660 206.613,274.000 205.861 C 273.340 205.109,272.800 204.353,272.800 204.181 C 272.800 203.771,263.132 194.000,262.726 194.000 C 262.033 194.000,257.991 191.131,257.567 190.338 C 256.674 188.670,254.791 187.208,253.210 186.955 C 252.126 186.782,251.253 186.278,250.384 185.322 C 249.034 183.839,246.534 182.597,243.614 181.958 C 241.715 181.542,239.200 179.641,239.200 178.621 C 239.200 177.859,237.320 177.398,231.811 176.812 C 229.397 176.555,226.427 175.972,225.211 175.517 C 217.576 172.660,202.876 170.803,197.400 172.003 M219.670 193.524 C 221.358 193.979,223.428 194.785,224.270 195.315 C 225.111 195.844,226.510 196.410,227.379 196.572 C 230.300 197.116,235.654 199.111,236.616 200.015 C 237.141 200.508,237.982 201.145,238.485 201.431 C 240.993 202.857,242.614 203.600,243.217 203.600 C 243.584 203.600,245.002 204.680,246.367 206.000 C 247.733 207.320,249.082 208.400,249.364 208.400 C 249.838 208.400,253.230 212.009,253.533 212.836 C 253.607 213.036,253.903 213.200,254.191 213.200 C 254.688 213.200,255.424 213.905,259.821 218.600 C 261.944 220.866,263.196 222.718,263.200 223.600 C 263.202 223.930,263.995 224.956,264.962 225.880 C 266.649 227.491,268.000 229.590,268.000 230.600 C 268.000 230.862,268.245 231.600,268.544 232.239 C 270.045 235.444,270.716 236.735,271.638 238.200 C 273.265 240.784,275.200 250.895,275.200 256.815 C 275.200 258.554,275.502 261.353,275.872 263.034 C 276.500 265.896,276.500 266.251,275.872 268.611 C 275.481 270.076,275.202 272.611,275.204 274.666 C 275.212 282.169,273.079 292.499,271.163 294.233 C 270.744 294.613,270.400 295.132,270.400 295.387 C 270.400 295.642,269.958 296.767,269.417 297.888 C 268.876 299.009,268.317 300.438,268.175 301.063 C 267.831 302.574,265.596 305.908,264.785 306.120 C 264.430 306.213,263.736 307.150,263.241 308.202 C 262.163 310.495,260.391 312.800,259.705 312.800 C 259.433 312.800,258.774 313.475,258.242 314.300 C 257.709 315.125,256.852 316.189,256.337 316.664 C 254.425 318.428,251.983 320.887,251.499 321.537 C 251.225 321.905,250.008 322.880,248.796 323.704 C 247.584 324.527,246.372 325.553,246.103 325.984 C 245.834 326.415,243.923 327.585,241.856 328.583 C 239.790 329.581,237.882 330.660,237.617 330.979 C 236.547 332.269,232.743 334.011,230.217 334.369 C 228.792 334.571,226.765 335.185,225.713 335.733 C 219.561 338.940,219.614 338.927,211.400 339.252 C 194.278 339.928,187.526 339.305,181.740 336.515 C 179.350 335.363,177.157 334.620,175.417 334.374 C 172.304 333.933,169.810 332.735,168.349 330.978 C 167.973 330.526,166.266 329.626,164.556 328.978 C 162.155 328.068,160.930 327.299,159.176 325.600 C 156.870 323.365,156.345 322.934,155.005 322.173 C 154.592 321.939,154.061 321.413,153.827 321.006 C 153.256 320.015,150.870 317.872,149.937 317.511 C 149.525 317.352,149.011 316.755,148.794 316.184 C 148.577 315.614,147.242 314.034,145.826 312.674 C 144.411 311.313,142.790 309.316,142.224 308.236 C 141.658 307.156,140.855 306.033,140.438 305.742 C 139.641 305.184,137.387 300.755,136.720 298.438 C 136.505 297.689,135.726 296.201,134.990 295.131 C 133.324 292.709,132.000 289.238,131.998 287.285 C 131.998 286.468,131.709 284.180,131.358 282.200 C 129.511 271.793,129.514 261.677,131.369 248.400 C 132.311 241.662,133.018 239.531,135.718 235.308 C 136.313 234.377,136.800 233.363,136.800 233.053 C 136.800 232.014,139.207 227.333,140.240 226.362 C 140.802 225.834,141.905 224.344,142.690 223.051 C 144.013 220.874,145.927 218.649,149.705 214.895 C 150.533 214.073,152.314 212.275,153.664 210.900 C 155.013 209.525,156.322 208.400,156.572 208.400 C 156.823 208.400,157.999 207.417,159.186 206.215 C 160.755 204.625,161.905 203.853,163.403 203.382 C 164.535 203.025,166.618 201.880,168.031 200.837 C 170.384 199.099,177.177 196.391,179.165 196.398 C 179.476 196.399,180.517 195.938,181.480 195.374 C 185.656 192.927,189.750 192.437,204.800 192.582 C 215.250 192.683,216.951 192.791,219.670 193.524 " stroke="none" fill="#09100d" fill-rule="evenodd"></path><path id="path1" d="M27.400 6.895 C 25.279 7.322,22.800 8.878,22.800 9.783 C 22.800 10.082,21.903 11.132,20.807 12.117 C 18.605 14.098,17.979 15.321,18.042 17.526 L 18.083 19.000 18.642 17.180 C 19.010 15.984,19.958 14.567,21.409 13.044 C 22.623 11.770,23.883 10.213,24.209 9.583 C 25.611 6.871,25.978 6.866,221.800 6.941 C 395.553 7.007,380.526 6.739,381.832 9.800 C 382.114 10.460,383.327 11.949,384.529 13.110 C 386.058 14.586,386.771 15.607,386.900 16.510 C 387.002 17.219,387.541 20.050,388.098 22.800 C 388.655 25.550,389.228 28.470,389.371 29.288 C 389.514 30.107,390.049 31.277,390.560 31.888 C 392.179 33.829,392.755 35.398,393.410 39.653 C 394.731 48.235,395.922 50.904,398.531 51.124 C 399.873 51.238,400.000 51.160,400.000 50.224 C 400.000 49.327,399.832 49.200,398.649 49.200 C 397.906 49.200,397.120 48.975,396.903 48.700 C 395.876 47.401,394.384 42.584,394.023 39.403 C 393.600 35.682,392.808 33.110,391.369 30.781 C 390.303 29.056,389.461 26.182,388.618 21.400 C 387.676 16.055,386.777 13.318,385.820 12.881 C 385.369 12.675,384.280 11.503,383.400 10.276 C 382.216 8.626,381.332 7.859,380.000 7.323 C 377.894 6.477,31.568 6.056,27.400 6.895 M17.664 19.848 C 17.517 21.803,15.173 28.977,14.420 29.778 C 13.972 30.256,13.441 31.446,13.240 32.423 C 13.040 33.401,12.407 36.540,11.833 39.400 C 11.258 42.260,10.706 44.973,10.604 45.429 C 10.503 45.885,10.005 46.875,9.497 47.629 C 7.743 50.234,6.518 54.379,5.990 59.501 C 5.452 64.709,3.748 68.000,1.588 68.000 C 0.090 68.000,0.000 68.068,0.000 69.200 C 0.000 70.949,2.865 71.029,3.571 69.300 C 3.818 68.695,4.433 67.526,4.938 66.702 C 5.599 65.623,5.990 64.054,6.337 61.102 C 7.003 55.429,8.069 51.579,9.482 49.739 C 10.792 48.034,11.566 45.265,12.813 37.818 C 13.365 34.524,13.850 32.782,14.371 32.218 C 16.078 30.372,18.230 23.158,17.897 20.400 C 17.804 19.630,17.699 19.382,17.664 19.848 M38.845 26.431 C 36.382 26.917,36.165 27.379,38.600 26.951 C 41.073 26.517,364.605 26.477,367.400 26.910 C 369.166 27.184,369.283 27.161,368.400 26.710 C 367.215 26.105,41.893 25.830,38.845 26.431 M33.671 28.640 C 32.481 30.084,31.977 31.588,32.026 33.550 C 32.043 34.233,32.254 33.853,32.628 32.461 C 33.245 30.168,34.339 28.496,35.734 27.714 L 36.600 27.228 35.729 27.214 C 35.205 27.206,34.386 27.773,33.671 28.640 M371.199 28.647 C 372.125 29.483,372.800 30.457,372.800 30.955 C 372.800 32.059,374.695 41.229,374.983 41.516 C 375.352 41.885,375.235 40.717,374.612 37.800 C 374.283 36.260,373.729 33.609,373.381 31.909 C 372.890 29.506,372.521 28.638,371.721 28.009 C 369.944 26.612,369.520 27.130,371.199 28.647 M31.086 39.181 C 30.693 40.820,29.966 42.710,29.470 43.381 C 25.218 49.130,24.687 63.516,28.657 65.400 C 29.783 65.934,49.579 65.991,203.341 65.901 L 376.756 65.800 378.178 64.422 C 379.371 63.265,379.593 62.782,379.559 61.422 L 379.517 59.800 379.122 61.286 C 378.885 62.178,378.101 63.338,377.162 64.186 L 375.598 65.600 202.890 65.600 L 30.182 65.600 28.750 64.419 C 25.644 61.859,25.684 52.390,28.826 46.512 C 30.560 43.267,32.129 38.525,31.931 37.126 C 31.853 36.572,31.513 37.398,31.086 39.181 M375.200 43.107 C 375.200 43.572,375.397 44.075,375.638 44.223 C 376.633 44.838,378.953 51.103,379.333 54.200 C 379.419 54.899,379.501 54.564,379.530 53.400 C 379.561 52.155,379.198 50.343,378.568 48.600 C 378.012 47.060,377.459 45.409,377.338 44.932 C 377.217 44.454,376.687 43.658,376.159 43.162 L 375.200 42.261 375.200 43.107 M0.000 77.400 C 0.000 78.298,0.161 78.400,1.580 78.400 C 2.449 78.400,3.304 78.625,3.480 78.900 C 4.811 80.980,13.858 84.400,18.029 84.400 C 19.036 84.400,20.950 86.342,22.030 88.458 C 22.691 89.754,22.800 90.836,22.800 96.100 C 22.800 100.260,22.993 102.973,23.400 104.535 C 23.730 105.802,24.000 108.160,24.000 109.775 C 24.000 112.458,24.950 118.119,25.985 121.597 C 26.213 122.366,26.400 124.403,26.400 126.124 C 26.400 127.845,26.582 129.593,26.805 130.010 C 27.222 130.788,27.774 138.184,28.386 151.200 C 28.578 155.270,28.929 159.229,29.167 159.997 C 29.405 160.766,29.600 163.157,29.600 165.311 C 29.600 168.698,29.735 169.494,30.603 171.206 C 31.455 172.886,31.640 173.926,31.834 178.093 C 31.960 180.792,32.304 184.350,32.600 186.000 C 32.896 187.650,33.267 191.520,33.424 194.600 C 33.582 197.680,33.835 202.090,33.987 204.400 L 34.264 208.600 34.301 203.400 C 34.415 187.287,32.234 167.600,30.336 167.600 C 30.151 167.600,29.999 166.385,29.997 164.900 C 29.995 163.415,29.828 160.760,29.626 159.000 C 29.423 157.240,29.057 150.940,28.812 145.000 C 28.567 139.060,28.169 133.210,27.927 132.000 C 27.685 130.790,27.362 127.280,27.210 124.200 C 26.982 119.611,26.739 118.064,25.866 115.630 C 25.069 113.411,24.799 111.895,24.796 109.630 C 24.793 107.964,24.510 105.700,24.166 104.600 C 23.761 103.306,23.429 99.962,23.225 95.128 L 22.910 87.657 21.436 85.649 C 20.626 84.545,19.656 83.547,19.281 83.431 C 17.218 82.793,12.483 82.000,10.736 82.000 C 8.163 82.000,6.098 80.674,4.044 77.700 C 2.834 75.949,0.000 75.739,0.000 77.400 M395.000 81.882 C 389.568 82.258,384.400 83.979,384.400 85.414 C 384.400 85.669,384.087 86.490,383.705 87.239 C 383.145 88.334,382.950 90.240,382.707 97.000 C 382.540 101.620,382.200 109.000,381.951 113.400 C 381.702 117.800,381.386 124.388,381.249 128.040 C 381.084 132.448,380.831 134.883,380.498 135.284 C 379.183 136.864,378.717 139.862,378.398 148.800 C 378.222 153.750,377.884 158.520,377.648 159.400 C 377.388 160.369,377.240 165.020,377.273 171.200 C 377.313 178.886,377.399 180.513,377.621 177.800 C 377.783 175.820,377.934 171.291,377.958 167.736 C 377.992 162.487,378.150 160.794,378.795 158.736 C 379.472 156.574,379.591 155.049,379.599 148.400 C 379.608 140.765,379.630 140.554,380.679 138.400 C 381.710 136.284,381.762 135.848,382.061 127.000 C 383.348 88.818,383.934 84.416,387.729 84.395 C 388.208 84.393,390.400 83.943,392.599 83.395 C 394.799 82.848,397.364 82.400,398.299 82.400 C 399.235 82.400,400.000 82.220,400.000 82.000 C 400.000 81.612,399.189 81.593,395.000 81.882 M45.800 82.469 C 43.735 83.615,41.589 86.695,41.611 88.480 C 41.622 89.347,43.055 87.234,43.836 85.200 C 43.963 84.870,44.694 84.195,45.461 83.700 L 46.855 82.800 202.853 82.800 L 358.850 82.800 360.998 83.816 C 363.385 84.946,364.384 86.677,364.451 89.800 C 364.504 92.255,363.680 108.418,363.421 110.000 C 363.216 111.254,363.260 111.212,363.846 109.600 C 364.535 107.701,365.269 98.232,365.354 90.161 C 365.407 85.011,365.377 84.951,361.897 83.212 L 359.472 82.000 203.036 82.012 C 89.108 82.021,46.383 82.145,45.800 82.469 M41.809 96.200 C 41.889 97.520,42.144 101.930,42.375 106.000 C 42.607 110.070,43.000 116.550,43.249 120.400 C 43.498 124.250,43.818 129.650,43.960 132.400 C 44.137 135.818,44.424 137.780,44.865 138.600 C 45.574 139.919,46.792 146.396,46.814 148.970 C 46.822 149.867,47.089 151.680,47.408 153.000 C 47.727 154.320,48.010 157.020,48.037 159.000 C 48.064 160.980,48.226 163.680,48.397 165.000 C 48.592 166.512,48.640 165.105,48.527 161.200 C 48.427 157.790,48.185 154.169,47.989 153.153 C 47.792 152.137,47.421 148.807,47.164 145.753 C 46.810 141.534,46.460 139.623,45.708 137.800 C 44.647 135.226,44.431 133.149,43.607 117.600 C 42.969 105.547,42.421 97.992,42.025 95.800 L 41.664 93.800 41.809 96.200 M362.662 130.663 C 362.518 133.668,362.392 138.393,362.383 141.163 C 362.373 143.933,362.185 147.010,361.964 148.000 C 361.744 148.990,361.437 154.033,361.282 159.206 L 361.000 168.612 359.700 170.575 L 358.400 172.537 358.461 180.969 C 358.504 186.908,358.608 188.632,358.814 186.800 C 358.975 185.370,359.128 181.564,359.153 178.343 C 359.189 173.887,359.327 172.437,359.729 172.282 C 361.195 171.720,362.000 167.758,362.007 161.064 C 362.011 157.509,362.180 152.980,362.382 151.000 C 362.760 147.310,363.356 125.200,363.078 125.200 C 362.993 125.200,362.806 127.658,362.662 130.663 M48.501 171.400 C 48.505 172.280,48.587 172.593,48.683 172.095 C 48.779 171.598,48.775 170.878,48.675 170.495 C 48.575 170.113,48.496 170.520,48.501 171.400 M195.600 171.847 L 193.000 172.379 195.800 172.094 C 199.299 171.737,206.506 171.747,210.200 172.113 L 213.000 172.391 210.200 171.827 C 206.725 171.127,199.065 171.138,195.600 171.847 M183.400 173.196 C 182.740 173.632,181.930 174.152,181.600 174.351 C 180.578 174.969,176.746 175.955,173.484 176.439 C 171.771 176.694,170.451 176.984,170.551 177.085 C 170.994 177.527,178.492 176.258,181.592 175.216 C 183.466 174.586,186.305 173.765,187.900 173.392 C 189.495 173.019,190.800 172.643,190.800 172.557 C 190.800 171.943,184.470 172.489,183.400 173.196 M215.536 172.677 C 215.831 172.795,217.631 173.296,219.536 173.790 C 221.441 174.285,223.990 175.059,225.200 175.509 C 227.274 176.282,235.059 177.474,235.454 177.080 C 235.554 176.979,234.208 176.689,232.463 176.433 C 227.907 175.767,224.160 174.606,222.756 173.424 C 221.658 172.500,221.218 172.403,218.269 172.432 C 216.471 172.449,215.241 172.559,215.536 172.677 M49.073 182.200 C 49.286 190.008,49.824 192.692,51.444 194.036 C 51.818 194.347,52.010 195.433,52.029 197.349 C 52.046 198.917,52.399 202.090,52.815 204.400 C 53.491 208.153,53.548 208.302,53.346 205.800 C 53.222 204.260,53.004 200.903,52.860 198.341 C 52.669 194.913,52.429 193.486,51.955 192.941 C 50.763 191.573,50.055 188.632,49.802 184.000 C 49.330 175.350,48.853 174.175,49.073 182.200 M166.381 178.100 C 165.931 178.595,165.277 179.308,164.927 179.685 C 164.578 180.062,163.551 180.737,162.646 181.185 C 161.343 181.829,161.193 181.999,161.926 182.000 C 163.523 182.000,166.800 179.551,166.800 178.357 C 166.800 178.173,167.385 177.854,168.100 177.648 C 169.372 177.280,169.377 177.271,168.300 177.236 C 167.634 177.214,166.877 177.555,166.381 178.100 M237.900 177.648 C 238.695 177.877,239.211 178.290,239.229 178.711 C 239.270 179.702,241.683 181.565,243.256 181.822 L 244.600 182.041 243.081 181.201 C 242.245 180.739,240.871 179.650,240.027 178.781 C 239.043 177.766,238.154 177.213,237.547 177.236 C 236.764 177.266,236.826 177.337,237.900 177.648 M157.800 182.718 C 156.920 183.070,156.110 183.482,156.000 183.632 C 155.890 183.782,155.018 184.556,154.062 185.352 C 152.641 186.536,152.477 186.800,153.163 186.800 C 153.624 186.800,154.676 186.109,155.500 185.265 C 156.325 184.421,157.855 183.407,158.900 183.011 C 159.945 182.615,160.800 182.226,160.800 182.146 C 160.800 181.828,159.317 182.111,157.800 182.718 M246.727 182.890 C 247.896 183.350,249.489 184.399,250.267 185.219 C 251.247 186.254,252.154 186.786,253.229 186.958 C 254.791 187.208,256.679 188.679,257.567 190.338 C 257.991 191.131,262.033 194.000,262.726 194.000 C 263.132 194.000,272.800 203.771,272.800 204.181 C 272.800 204.353,273.340 205.109,274.000 205.861 C 274.660 206.613,275.200 207.398,275.200 207.606 C 275.200 207.814,275.650 208.098,276.200 208.236 C 276.750 208.374,277.200 208.655,277.200 208.862 C 277.200 209.068,277.648 209.685,278.196 210.232 C 278.744 210.780,279.304 211.675,279.441 212.222 C 279.578 212.768,280.482 213.784,281.449 214.478 C 283.207 215.741,283.463 216.251,284.215 220.000 C 284.612 221.976,285.314 223.210,286.859 224.645 C 287.597 225.330,288.414 226.230,288.676 226.645 C 289.073 227.273,289.157 227.292,289.176 226.756 C 289.189 226.402,288.615 225.464,287.900 224.671 C 287.185 223.879,286.376 222.963,286.103 222.635 C 285.343 221.726,284.470 219.562,284.214 217.954 C 283.964 216.380,282.195 213.760,281.139 213.398 C 280.775 213.273,280.166 212.515,279.786 211.713 C 279.405 210.912,278.193 209.355,277.091 208.253 C 275.989 207.151,274.341 205.236,273.429 203.997 C 271.972 202.018,270.028 199.943,268.336 198.563 C 268.041 198.323,267.007 197.198,266.039 196.063 C 265.070 194.928,264.106 194.000,263.897 194.000 C 263.687 194.000,262.716 193.460,261.738 192.800 C 260.760 192.140,259.793 191.600,259.589 191.600 C 259.385 191.600,258.911 191.130,258.534 190.556 C 257.319 188.702,255.459 187.097,254.086 186.717 C 253.349 186.514,251.997 185.642,251.082 184.780 C 250.167 183.919,248.617 182.940,247.638 182.607 C 244.985 181.703,244.274 181.923,246.727 182.890 M376.726 191.400 C 376.575 195.140,376.273 199.190,376.055 200.400 C 375.837 201.610,375.645 205.771,375.629 209.646 C 375.603 215.865,375.513 216.804,374.860 217.646 C 373.072 219.949,373.008 220.326,372.741 230.000 C 372.599 235.170,372.293 244.170,372.062 250.000 C 371.830 255.830,371.624 264.229,371.603 268.664 C 371.580 273.411,371.382 277.278,371.120 278.064 C 370.875 278.799,370.557 283.000,370.414 287.400 C 370.172 294.820,370.072 295.618,369.039 298.400 C 368.064 301.027,367.905 302.097,367.763 307.000 C 367.674 310.080,367.335 314.940,367.010 317.800 C 366.657 320.899,366.254 330.676,366.012 342.000 C 365.788 352.450,365.423 361.629,365.202 362.397 C 364.981 363.166,364.800 366.427,364.800 369.643 C 364.800 374.725,364.703 375.617,364.059 376.446 C 363.652 376.971,363.215 377.850,363.087 378.400 C 362.960 378.950,362.667 380.120,362.437 381.000 C 362.207 381.880,362.008 385.840,361.995 389.800 C 361.979 394.640,361.782 397.787,361.392 399.400 C 360.796 401.867,360.491 423.642,361.060 423.073 C 361.204 422.930,361.442 417.905,361.590 411.906 C 361.804 403.225,361.994 400.633,362.523 399.200 C 363.060 397.749,363.189 395.864,363.194 389.475 C 363.200 381.654,363.214 381.521,364.300 379.275 C 365.352 377.099,365.413 376.634,365.705 368.600 C 366.020 359.895,366.473 347.943,367.153 330.400 C 367.370 324.790,367.733 318.940,367.961 317.400 C 368.188 315.860,368.380 312.196,368.387 309.258 C 368.399 304.307,368.476 303.765,369.443 301.858 C 370.451 299.869,370.493 299.503,370.679 291.000 C 370.785 286.160,371.061 281.570,371.294 280.800 C 371.526 280.030,371.867 274.810,372.053 269.200 C 372.697 249.679,373.160 239.783,373.558 237.000 C 373.779 235.460,373.968 231.471,373.979 228.136 C 373.999 222.249,374.035 221.998,375.200 219.536 C 376.359 217.086,376.399 216.806,376.400 211.269 C 376.400 208.117,376.588 203.437,376.819 200.869 C 377.049 198.301,377.184 193.590,377.119 190.400 L 377.000 184.600 376.726 191.400 M149.722 187.787 C 149.105 188.330,148.803 188.780,149.051 188.787 C 149.299 188.794,149.743 188.510,150.037 188.155 C 150.331 187.801,150.938 187.362,151.386 187.181 C 152.035 186.918,152.062 186.846,151.522 186.825 C 151.150 186.811,150.340 187.244,149.722 187.787 M147.426 190.216 C 147.060 190.775,146.140 191.528,145.380 191.890 C 144.621 192.252,144.000 192.667,144.000 192.813 C 144.000 192.959,143.298 193.395,142.439 193.782 C 141.581 194.170,140.077 195.414,139.098 196.549 C 138.118 197.683,136.661 198.964,135.859 199.396 C 135.056 199.828,134.400 200.335,134.400 200.521 C 134.400 200.977,131.300 204.932,129.032 207.369 C 128.025 208.452,127.200 209.526,127.200 209.756 C 127.200 210.568,133.262 203.949,134.056 202.269 C 134.282 201.791,135.192 200.860,136.077 200.200 C 136.963 199.540,138.817 197.875,140.198 196.500 C 141.580 195.125,143.000 194.000,143.355 194.000 C 143.710 194.000,144.000 193.842,144.000 193.649 C 144.000 193.455,144.548 193.070,145.217 192.793 C 146.614 192.214,148.800 190.290,148.800 189.640 C 148.800 188.876,148.117 189.162,147.426 190.216 M357.959 190.433 C 357.891 190.706,357.181 208.244,356.801 219.000 C 355.781 247.919,355.678 249.247,354.268 251.582 C 353.517 252.825,353.408 253.816,353.182 261.415 C 353.043 266.063,352.789 270.094,352.616 270.374 C 352.075 271.250,350.798 312.148,351.329 311.597 C 351.434 311.489,351.729 303.570,351.985 294.000 C 352.242 284.430,352.642 275.160,352.874 273.400 C 353.107 271.640,353.423 266.780,353.578 262.600 C 353.847 255.290,353.901 254.920,354.984 252.903 C 356.101 250.824,356.113 250.722,356.427 240.903 C 356.602 235.456,356.929 230.190,357.155 229.200 C 357.381 228.210,357.585 223.710,357.610 219.200 C 357.634 214.690,357.798 206.410,357.975 200.800 C 358.241 192.309,358.237 189.309,357.959 190.433 M190.400 192.785 C 186.782 193.225,183.542 194.166,181.480 195.374 C 180.517 195.938,179.476 196.399,179.165 196.398 C 177.177 196.391,170.384 199.099,168.031 200.837 C 166.618 201.880,164.535 203.025,163.403 203.382 C 161.905 203.853,160.755 204.625,159.186 206.215 C 157.999 207.417,156.823 208.400,156.572 208.400 C 156.322 208.400,155.013 209.525,153.664 210.900 C 152.314 212.275,150.533 214.073,149.705 214.895 C 145.927 218.649,144.013 220.874,142.690 223.051 C 141.905 224.344,140.802 225.834,140.240 226.362 C 139.207 227.333,136.800 232.014,136.800 233.053 C 136.800 233.363,136.313 234.377,135.718 235.308 C 133.018 239.531,132.311 241.662,131.369 248.400 C 129.514 261.677,129.511 271.793,131.358 282.200 C 131.709 284.180,131.998 286.468,131.998 287.285 C 132.000 289.238,133.324 292.709,134.990 295.131 C 135.726 296.201,136.505 297.689,136.720 298.438 C 137.387 300.755,139.641 305.184,140.438 305.742 C 140.855 306.033,141.658 307.156,142.224 308.236 C 142.790 309.316,144.411 311.313,145.826 312.674 C 147.242 314.034,148.577 315.614,148.794 316.184 C 149.011 316.755,149.525 317.352,149.937 317.511 C 150.870 317.872,153.256 320.015,153.827 321.006 C 154.061 321.413,154.592 321.939,155.005 322.173 C 156.345 322.934,156.870 323.365,159.176 325.600 C 160.930 327.299,162.155 328.068,164.556 328.978 C 166.266 329.626,167.973 330.526,168.349 330.978 C 169.810 332.735,172.304 333.933,175.417 334.374 C 177.157 334.620,179.350 335.363,181.740 336.515 C 187.526 339.305,194.278 339.928,211.400 339.252 C 219.614 338.927,219.561 338.940,225.713 335.733 C 226.765 335.185,228.792 334.571,230.217 334.369 C 232.743 334.011,236.547 332.269,237.617 330.979 C 237.882 330.660,239.790 329.581,241.856 328.583 C 243.923 327.585,245.834 326.415,246.103 325.984 C 246.372 325.553,247.584 324.527,248.796 323.704 C 250.008 322.880,251.225 321.905,251.499 321.537 C 251.983 320.887,254.425 318.428,256.337 316.664 C 256.852 316.189,257.709 315.125,258.242 314.300 C 258.774 313.475,259.433 312.800,259.705 312.800 C 260.391 312.800,262.163 310.495,263.241 308.202 C 263.736 307.150,264.430 306.213,264.785 306.120 C 265.596 305.908,267.831 302.574,268.175 301.063 C 268.317 300.438,268.876 299.009,269.417 297.888 C 269.958 296.767,270.400 295.642,270.400 295.387 C 270.400 295.132,270.744 294.613,271.163 294.233 C 273.079 292.499,275.212 282.169,275.204 274.666 C 275.202 272.611,275.481 270.076,275.872 268.611 C 276.500 266.251,276.500 265.896,275.872 263.034 C 275.502 261.353,275.200 258.554,275.200 256.815 C 275.200 250.895,273.265 240.784,271.638 238.200 C 270.716 236.735,270.045 235.444,268.544 232.239 C 268.245 231.600,268.000 230.862,268.000 230.600 C 268.000 229.590,266.649 227.491,264.962 225.880 C 263.995 224.956,263.202 223.930,263.200 223.600 C 263.196 222.718,261.944 220.866,259.821 218.600 C 255.424 213.905,254.688 213.200,254.191 213.200 C 253.903 213.200,253.607 213.036,253.533 212.836 C 253.230 212.009,249.838 208.400,249.364 208.400 C 249.082 208.400,247.733 207.320,246.367 206.000 C 245.002 204.680,243.584 203.600,243.217 203.600 C 242.614 203.600,240.993 202.857,238.485 201.431 C 237.982 201.145,237.141 200.508,236.616 200.015 C 235.654 199.111,230.300 197.116,227.379 196.572 C 226.510 196.410,225.111 195.844,224.270 195.315 C 220.461 192.918,201.152 191.475,190.400 192.785 M34.636 215.400 C 34.826 221.221,35.358 224.800,36.033 224.800 C 36.594 224.800,37.195 227.674,37.205 230.400 C 37.210 231.830,37.495 234.620,37.838 236.600 C 38.182 238.580,38.611 242.630,38.792 245.600 C 39.092 250.515,39.108 250.264,38.969 242.800 C 38.711 228.996,37.745 222.400,35.981 222.400 C 35.771 222.400,35.586 220.831,35.570 218.900 C 35.553 216.975,35.292 214.050,34.989 212.400 L 34.439 209.400 34.636 215.400 M125.953 211.700 C 125.457 212.415,124.500 213.488,123.826 214.084 C 123.152 214.680,122.819 215.175,123.086 215.184 C 123.903 215.211,126.304 212.852,126.744 211.590 C 127.278 210.058,127.072 210.087,125.953 211.700 M121.456 218.552 C 120.875 220.188,120.400 221.689,120.400 221.888 C 120.400 222.087,119.853 222.775,119.184 223.416 C 117.537 224.994,116.132 227.602,115.810 229.682 C 115.386 232.418,114.844 233.961,112.952 237.813 C 111.976 239.800,111.083 242.140,110.967 243.013 C 110.782 244.404,110.861 244.304,111.611 242.200 C 112.082 240.880,112.778 239.440,113.159 239.000 C 114.435 237.527,115.140 236.129,115.399 234.558 C 116.352 228.781,117.527 225.604,119.092 224.577 C 120.161 223.876,121.524 221.018,122.228 218.003 C 122.951 214.903,122.684 215.093,121.456 218.552 M53.666 221.800 C 53.643 224.440,53.801 227.950,54.017 229.600 C 54.233 231.250,54.591 235.120,54.812 238.200 C 55.237 244.099,55.887 247.332,56.956 248.858 C 57.391 249.480,57.609 250.690,57.628 252.589 C 57.644 254.135,57.811 255.760,58.000 256.200 C 58.224 256.721,58.354 255.588,58.372 252.956 C 58.398 249.248,58.305 248.734,57.256 246.756 C 56.261 244.882,56.074 243.987,55.827 239.907 C 55.671 237.326,55.289 233.546,54.979 231.507 C 54.668 229.468,54.395 226.270,54.372 224.400 C 54.297 218.376,53.714 216.227,53.666 221.800 M289.234 228.680 C 289.158 231.524,291.671 239.042,292.818 239.406 C 293.220 239.533,293.629 239.944,293.728 240.319 C 293.887 240.922,293.913 240.916,293.954 240.272 C 293.979 239.872,293.460 238.759,292.800 237.800 C 292.140 236.841,291.597 235.818,291.594 235.528 C 291.591 235.238,291.295 234.190,290.937 233.200 C 290.579 232.210,290.057 230.500,289.777 229.400 C 289.336 227.669,289.263 227.572,289.234 228.680 M294.040 241.674 C 294.018 242.045,294.180 242.820,294.399 243.397 C 294.618 243.974,294.872 247.181,294.962 250.523 C 295.052 253.865,295.339 258.670,295.599 261.200 C 295.954 264.647,295.962 267.053,295.631 270.800 C 295.388 273.550,295.011 278.680,294.793 282.200 C 294.575 285.720,294.304 289.140,294.192 289.800 C 294.072 290.504,294.237 290.256,294.592 289.200 C 296.534 283.416,296.574 248.923,294.646 242.800 C 294.334 241.810,294.061 241.303,294.040 241.674 M110.481 251.235 C 110.437 253.344,110.131 256.854,109.802 259.035 C 109.095 263.728,109.015 271.232,109.651 273.203 C 109.899 273.971,110.239 276.850,110.407 279.600 L 110.711 284.600 110.553 278.600 C 110.467 275.300,110.284 271.520,110.148 270.200 C 110.011 268.880,110.119 264.740,110.387 261.000 C 110.656 257.260,110.805 252.670,110.719 250.800 L 110.563 247.400 110.481 251.235 M39.207 256.433 C 39.211 259.385,39.383 263.330,39.590 265.200 C 40.674 275.025,41.204 278.394,41.963 280.315 C 42.519 281.720,42.800 283.331,42.800 285.117 C 42.800 286.596,43.003 288.434,43.251 289.203 C 43.499 289.971,43.850 294.110,44.030 298.400 C 44.477 309.031,45.078 318.076,45.545 321.200 C 45.759 322.630,46.057 325.870,46.208 328.400 C 46.422 331.976,46.663 333.297,47.294 334.332 C 47.909 335.342,48.180 336.745,48.417 340.132 C 48.588 342.590,48.914 345.410,49.140 346.400 C 49.367 347.390,49.671 350.900,49.815 354.200 C 50.474 369.299,50.659 372.393,50.920 372.654 C 51.572 373.306,50.632 349.769,49.799 344.600 C 49.481 342.620,49.134 339.426,49.029 337.502 C 48.925 335.578,48.583 333.418,48.270 332.702 C 47.158 330.157,46.400 326.368,46.390 323.306 C 46.385 321.598,46.194 319.480,45.966 318.600 C 45.737 317.720,45.290 311.240,44.971 304.200 C 43.959 281.830,43.843 280.409,42.872 278.427 C 41.680 275.998,39.985 264.526,39.734 257.201 C 39.483 249.848,39.198 249.433,39.207 256.433 M58.664 262.800 C 58.757 265.550,59.004 270.500,59.212 273.800 C 59.421 277.100,59.582 280.790,59.570 282.000 C 59.558 283.210,59.729 285.730,59.951 287.600 C 60.173 289.470,60.468 292.620,60.607 294.600 C 60.842 297.962,62.053 302.916,62.850 303.780 C 63.042 303.989,63.198 305.519,63.197 307.180 C 63.195 308.841,63.463 311.370,63.792 312.800 C 64.166 314.426,64.580 319.969,64.895 327.600 C 65.173 334.310,65.465 338.900,65.543 337.800 C 65.798 334.244,64.775 314.674,64.205 312.200 C 63.900 310.880,63.562 307.910,63.454 305.600 C 63.345 303.290,63.042 300.860,62.781 300.200 C 61.657 297.366,60.813 293.189,60.807 290.433 C 60.803 288.801,60.632 286.371,60.427 285.033 C 60.221 283.695,59.841 277.650,59.582 271.600 C 59.323 265.550,58.973 259.970,58.804 259.200 C 58.628 258.404,58.568 259.956,58.664 262.800 M111.003 288.490 C 111.112 289.642,111.871 291.751,112.945 293.891 C 114.729 297.443,115.188 298.792,115.987 302.836 C 116.437 305.112,116.846 305.842,119.030 308.258 C 119.711 309.011,120.654 310.820,121.143 312.309 C 121.999 314.916,123.114 317.212,122.645 315.400 C 122.531 314.960,122.316 314.060,122.166 313.400 C 121.665 311.191,120.314 308.615,118.775 306.936 C 117.188 305.204,116.650 303.762,115.815 298.990 C 115.281 295.943,114.410 293.791,113.174 292.464 C 112.300 291.526,111.657 290.103,111.157 288.000 C 110.865 286.768,110.846 286.827,111.003 288.490 M292.919 292.152 C 291.840 293.191,290.919 295.314,289.950 299.000 C 288.961 302.761,288.975 305.154,289.966 301.800 C 290.356 300.480,290.981 298.384,291.354 297.143 C 291.727 295.901,292.379 294.485,292.804 293.995 C 294.300 292.271,294.396 290.731,292.919 292.152 M288.846 304.666 C 288.821 304.923,287.976 306.003,286.970 307.066 C 285.123 309.018,284.392 310.290,284.409 311.526 C 284.414 311.906,284.700 311.629,285.063 310.891 C 285.418 310.171,286.307 308.911,287.039 308.091 C 287.771 307.271,288.568 306.370,288.812 306.088 C 289.055 305.806,289.173 305.266,289.073 304.888 C 288.974 304.510,288.872 304.410,288.846 304.666 M350.704 313.400 C 350.542 314.280,350.407 317.464,350.404 320.475 C 350.401 325.026,350.225 326.645,349.364 330.075 C 347.693 336.728,347.636 337.146,347.613 342.800 C 347.599 346.234,347.375 349.001,347.000 350.400 C 346.549 352.079,346.427 354.730,346.485 361.600 L 346.560 370.600 346.784 361.000 C 346.974 352.828,347.117 351.162,347.745 349.800 C 348.359 348.468,348.473 347.294,348.421 342.800 C 348.366 338.049,348.476 337.039,349.338 334.400 C 349.877 332.750,350.527 330.050,350.783 328.400 C 351.293 325.112,351.217 310.625,350.704 313.400 M283.655 314.146 C 283.245 315.775,281.366 318.000,280.400 318.000 C 280.214 318.000,279.869 318.585,279.633 319.300 C 279.397 320.015,277.937 321.917,276.390 323.527 C 274.842 325.136,273.129 327.161,272.583 328.027 C 272.037 328.892,271.422 329.600,271.218 329.600 C 271.013 329.600,270.526 330.140,270.136 330.800 C 269.746 331.460,269.299 332.000,269.141 332.000 C 268.984 332.000,267.505 333.355,265.854 335.010 C 263.931 336.940,262.091 338.367,260.727 338.985 C 259.173 339.691,258.227 340.482,257.213 341.922 C 256.086 343.525,255.431 344.028,253.710 344.613 C 251.520 345.357,247.909 348.436,248.856 348.752 C 249.123 348.841,249.841 348.355,250.452 347.673 C 251.062 346.990,252.624 345.894,253.924 345.238 C 255.379 344.504,256.911 343.300,257.909 342.109 C 258.800 341.044,260.041 339.918,260.665 339.606 C 263.526 338.176,265.561 336.608,267.164 334.600 C 268.120 333.402,269.232 332.317,269.635 332.189 C 270.371 331.955,272.800 329.169,272.800 328.558 C 272.800 328.377,273.260 327.773,273.823 327.215 C 276.345 324.712,279.600 321.035,279.600 320.688 C 279.600 320.478,280.582 319.246,281.783 317.949 C 283.222 316.394,284.056 315.110,284.231 314.177 C 284.620 312.100,284.177 312.075,283.655 314.146 M122.800 316.803 C 122.800 317.010,123.340 317.459,124.000 317.800 C 124.660 318.141,125.200 318.604,125.200 318.827 C 125.200 319.403,128.176 323.362,129.280 324.254 C 130.393 325.155,134.138 329.917,134.514 330.910 C 134.661 331.300,135.120 331.750,135.534 331.910 C 136.675 332.351,139.082 334.599,139.364 335.487 C 139.606 336.250,142.017 337.998,144.721 339.371 C 145.447 339.740,146.662 340.700,147.421 341.504 C 148.274 342.409,148.800 342.736,148.800 342.362 C 148.800 341.579,146.349 339.200,145.542 339.200 C 145.201 339.200,144.507 338.840,144.000 338.400 C 143.493 337.960,142.944 337.600,142.781 337.600 C 142.048 337.600,132.000 326.866,132.000 326.083 C 132.000 325.862,131.004 324.822,129.787 323.771 C 128.570 322.720,127.102 320.993,126.525 319.933 C 125.581 318.199,122.800 315.862,122.800 316.803 M65.655 344.200 C 65.628 348.916,66.076 351.738,67.745 357.345 C 68.325 359.294,68.800 361.636,68.800 362.547 C 68.800 363.459,68.999 364.834,69.242 365.603 C 69.485 366.371,69.822 369.340,69.989 372.200 L 70.294 377.400 70.221 372.400 C 70.122 365.586,69.254 359.236,67.443 352.075 C 66.810 349.569,66.384 346.742,66.360 344.875 C 66.294 339.813,65.683 339.228,65.655 344.200 M148.939 343.500 C 149.041 343.665,150.318 344.411,151.776 345.159 C 153.235 345.906,154.860 347.031,155.388 347.659 C 155.916 348.286,156.675 348.789,157.074 348.775 C 157.661 348.754,157.628 348.680,156.900 348.388 C 156.405 348.189,156.000 347.774,156.000 347.467 C 156.000 346.758,153.457 345.030,151.506 344.414 C 150.684 344.154,149.908 343.775,149.782 343.571 C 149.656 343.367,149.373 343.200,149.153 343.200 C 148.933 343.200,148.837 343.335,148.939 343.500 M158.400 348.937 C 158.400 349.012,159.705 349.578,161.300 350.194 C 164.326 351.362,165.600 352.194,165.600 353.001 C 165.600 353.806,168.396 354.739,172.800 355.403 C 175.110 355.751,177.555 356.120,178.233 356.223 C 178.911 356.326,180.507 357.039,181.781 357.805 C 183.521 358.853,184.558 359.203,185.948 359.212 C 186.967 359.219,189.960 359.486,192.600 359.804 C 197.845 360.437,199.909 360.505,197.400 359.962 C 195.875 359.632,194.163 359.373,187.069 358.399 C 185.068 358.125,183.407 357.633,182.469 357.037 C 181.483 356.411,179.816 355.939,177.400 355.601 C 169.019 354.431,167.077 353.904,166.205 352.566 C 165.416 351.356,164.322 350.712,160.892 349.435 C 159.240 348.821,158.400 348.653,158.400 348.937 M244.200 349.692 C 242.880 350.147,241.710 350.628,241.600 350.760 C 241.490 350.892,241.040 351.195,240.600 351.433 C 240.160 351.671,239.621 352.259,239.402 352.741 C 238.908 353.826,237.753 354.152,230.432 355.280 C 226.132 355.942,224.325 356.398,223.331 357.073 C 222.027 357.958,220.029 358.366,212.800 359.224 C 208.754 359.705,205.998 360.457,209.200 360.207 C 220.850 359.298,221.708 359.155,224.100 357.721 C 226.005 356.579,227.103 356.249,230.500 355.796 C 237.351 354.884,238.604 354.507,240.176 352.889 C 241.033 352.007,242.807 350.925,244.693 350.133 C 248.165 348.675,247.881 348.421,244.200 349.692 M51.225 377.027 C 51.197 381.531,51.674 384.777,52.824 387.915 C 53.380 389.431,53.602 391.074,53.606 393.715 C 53.610 396.085,53.842 398.042,54.258 399.200 C 54.672 400.352,55.033 403.367,55.262 407.576 C 55.458 411.193,55.704 414.238,55.809 414.343 C 56.302 414.835,55.947 401.632,55.408 399.400 C 55.089 398.080,54.824 395.560,54.819 393.800 C 54.809 390.302,53.972 385.761,52.742 382.539 C 52.200 381.118,51.975 379.626,52.020 377.739 C 52.055 376.232,51.896 374.550,51.667 374.000 C 51.338 373.210,51.245 373.845,51.225 377.027 M346.047 380.800 C 346.007 384.650,345.790 389.060,345.564 390.600 C 345.339 392.140,345.030 396.920,344.877 401.222 C 344.603 408.952,344.585 409.074,343.328 411.622 L 342.056 414.200 341.892 423.200 C 341.791 428.763,341.863 431.742,342.081 431.000 C 342.275 430.340,342.539 426.200,342.668 421.800 C 342.826 416.389,343.060 413.606,343.392 413.200 C 345.079 411.137,345.332 409.891,345.662 402.000 C 346.184 389.526,346.497 376.301,346.301 375.000 C 346.201 374.340,346.087 376.950,346.047 380.800 M70.644 388.200 C 70.856 398.186,71.299 403.703,72.106 406.400 C 72.858 408.913,74.665 416.408,74.951 418.200 C 75.175 419.602,74.898 414.973,74.532 411.200 C 74.393 409.770,74.034 408.222,73.734 407.761 C 72.842 406.391,72.000 402.540,72.000 399.835 C 72.000 398.446,71.804 396.340,71.565 395.155 C 71.325 393.970,70.984 390.210,70.806 386.800 L 70.482 380.600 70.644 388.200 M56.228 423.800 C 56.500 432.461,56.985 437.317,57.728 438.790 C 58.138 439.604,58.677 442.338,59.028 445.390 C 59.357 448.255,59.883 452.220,60.197 454.200 C 60.511 456.180,60.873 461.839,61.003 466.775 C 61.132 471.711,61.421 477.111,61.644 478.775 C 61.867 480.439,62.207 483.960,62.398 486.600 C 62.779 491.856,63.127 494.000,63.597 494.000 C 64.149 494.000,64.773 496.144,65.169 499.400 C 66.053 506.680,67.018 508.988,70.950 513.235 C 72.407 514.809,73.600 516.234,73.600 516.401 C 73.600 517.016,77.857 519.852,79.600 520.399 C 81.307 520.934,82.826 521.660,84.745 522.859 C 85.334 523.226,85.600 523.798,85.600 524.696 C 85.600 525.920,85.686 526.000,87.000 526.000 C 88.328 526.000,88.400 525.930,88.400 524.627 C 88.400 523.185,83.191 520.000,80.835 520.000 C 78.877 520.000,70.400 512.687,70.400 510.997 C 70.400 510.716,69.976 510.380,69.457 510.250 C 67.932 509.867,66.328 504.216,65.836 497.488 C 65.608 494.372,64.999 492.595,63.826 491.622 C 63.348 491.225,63.198 490.289,63.193 487.651 C 63.189 485.753,62.918 482.490,62.590 480.400 C 62.262 478.310,61.641 469.220,61.209 460.200 C 60.361 442.493,60.150 440.660,58.613 437.625 C 57.809 436.039,57.598 435.025,57.590 432.713 C 57.585 431.111,57.392 429.080,57.161 428.200 C 56.930 427.320,56.592 424.890,56.409 422.800 L 56.078 419.000 56.228 423.800 M75.438 427.600 C 76.086 452.343,77.213 462.800,79.233 462.800 C 79.435 462.800,79.600 464.462,79.600 466.494 C 79.600 468.526,79.857 472.081,80.172 474.394 C 80.487 476.707,80.982 482.650,81.272 487.600 C 81.562 492.550,81.863 495.970,81.939 495.200 C 82.132 493.268,81.248 478.028,80.744 474.600 C 80.518 473.060,80.197 469.550,80.030 466.800 C 79.757 462.301,79.619 461.643,78.653 460.229 C 77.294 458.241,77.278 458.151,77.032 451.200 C 76.919 448.010,76.631 442.430,76.392 438.800 C 76.153 435.170,75.804 429.770,75.616 426.800 L 75.275 421.400 75.438 427.600 M341.045 442.900 C 340.295 468.103,340.138 471.852,339.815 472.376 C 339.623 472.687,339.339 477.004,339.184 481.970 C 338.902 491.000,338.543 493.076,337.099 494.043 C 336.899 494.177,336.796 494.807,336.869 495.443 L 337.003 496.600 338.037 495.000 C 338.606 494.120,339.201 492.680,339.358 491.800 C 340.054 487.920,342.075 433.600,341.524 433.600 C 341.413 433.600,341.198 437.785,341.045 442.900 M360.054 438.400 C 359.747 439.863,359.421 444.673,359.309 449.400 C 359.199 454.020,358.981 457.890,358.823 458.000 C 357.166 459.156,356.474 462.627,356.230 471.000 C 355.296 503.194,355.191 504.147,352.251 507.263 C 351.494 508.066,350.569 509.416,350.196 510.262 C 348.824 513.376,348.585 513.717,347.503 514.094 C 346.896 514.305,346.400 514.641,346.400 514.839 C 346.400 515.038,346.146 515.200,345.836 515.200 C 345.525 515.200,344.886 515.996,344.415 516.970 C 343.564 518.728,341.355 520.000,339.154 520.000 C 336.725 520.000,332.000 522.962,332.000 524.486 C 332.000 525.902,332.078 526.000,333.200 526.000 C 334.330 526.000,334.400 525.908,334.400 524.427 C 334.400 523.141,334.564 522.805,335.300 522.587 C 335.795 522.440,337.264 521.798,338.564 521.160 C 339.864 520.522,341.425 520.000,342.033 520.000 C 342.922 520.000,343.477 519.534,344.869 517.623 C 345.821 516.315,346.857 515.235,347.172 515.223 C 348.078 515.187,350.132 512.691,351.012 510.556 C 351.463 509.460,352.198 508.431,352.683 508.216 C 354.889 507.238,355.640 503.623,356.006 492.200 C 356.182 486.700,356.533 481.480,356.784 480.600 C 357.036 479.720,357.330 475.580,357.437 471.400 C 357.611 464.621,358.066 460.998,358.818 460.400 C 359.617 459.764,360.000 456.885,360.000 451.508 C 360.000 448.224,360.196 443.878,360.435 441.851 C 361.020 436.887,360.797 434.862,360.054 438.400 M82.012 497.433 C 82.001 498.228,84.568 501.200,85.267 501.200 C 85.450 501.200,85.600 501.442,85.600 501.738 C 85.600 503.743,89.100 505.620,92.680 505.535 L 95.400 505.471 92.568 505.235 C 89.660 504.994,87.041 503.748,86.603 502.397 C 86.496 502.065,85.626 500.979,84.671 499.982 C 83.716 498.985,82.730 497.816,82.480 497.385 C 82.034 496.616,82.024 496.617,82.012 497.433 M335.500 499.187 C 334.895 500.552,334.400 501.813,334.400 501.987 C 334.400 502.797,331.466 504.409,328.958 504.977 L 326.200 505.603 328.752 505.402 C 332.319 505.122,333.644 504.192,335.406 500.735 C 336.196 499.184,336.788 497.643,336.721 497.310 C 336.655 496.976,336.105 497.821,335.500 499.187 " stroke="none" fill="#05744c" fill-rule="evenodd"></path><path id="path2" d="M0.000 29.400 L 0.000 58.800 1.582 58.800 C 3.381 58.800,3.189 59.306,4.001 52.400 C 4.621 47.123,5.874 42.957,7.140 41.961 C 8.312 41.039,9.341 37.470,9.746 32.913 C 10.198 27.832,11.008 25.147,12.503 23.768 C 14.175 22.227,15.191 19.624,15.230 16.787 C 15.291 12.292,16.895 8.400,18.687 8.400 C 18.958 8.400,19.447 7.882,19.775 7.248 C 20.874 5.123,22.877 4.324,28.000 3.970 C 33.847 3.565,373.820 3.553,378.428 3.958 C 382.497 4.315,385.310 5.496,386.045 7.157 C 386.315 7.766,387.048 8.491,387.674 8.769 C 389.267 9.474,390.383 12.165,390.815 16.341 C 391.381 21.811,391.583 22.601,392.519 23.020 C 394.309 23.820,396.381 30.383,396.395 35.294 C 396.405 38.957,397.171 40.800,398.683 40.800 L 400.000 40.800 400.000 20.400 L 400.000 0.000 200.000 0.000 L 0.000 0.000 0.000 29.400 M39.300 29.488 C 38.365 29.812,37.600 30.200,37.600 30.351 C 37.600 30.503,36.977 31.594,36.215 32.777 C 35.448 33.967,34.741 35.657,34.630 36.563 C 33.460 46.144,32.906 48.237,30.977 50.372 C 30.220 51.211,29.600 52.224,29.600 52.624 C 29.600 53.024,29.401 54.353,29.158 55.576 C 28.790 57.432,28.824 58.048,29.364 59.300 L 30.011 60.801 202.827 60.700 L 375.643 60.600 376.496 59.107 C 377.700 57.000,376.740 52.681,374.453 49.914 C 373.111 48.289,372.884 47.686,372.432 44.542 C 371.384 37.252,370.403 33.479,369.223 32.200 C 368.614 31.540,368.005 30.685,367.870 30.300 C 367.726 29.888,367.218 29.600,366.636 29.600 C 366.092 29.600,365.536 29.420,365.400 29.200 C 364.954 28.479,41.393 28.765,39.300 29.488 M0.000 304.600 L 0.000 526.000 39.000 526.000 L 78.000 526.000 78.000 524.649 C 78.000 523.492,77.812 523.226,76.700 522.802 C 72.970 521.380,70.400 519.549,70.400 518.314 C 70.400 517.692,68.807 516.122,67.102 515.065 C 65.832 514.277,65.148 512.812,64.168 508.784 C 63.622 506.537,63.180 505.637,62.169 504.717 C 59.765 502.530,59.346 499.578,58.803 481.000 C 58.375 466.397,58.289 465.611,56.984 464.385 C 56.091 463.546,56.000 463.152,56.000 460.110 C 56.000 457.841,55.796 456.366,55.369 455.540 C 54.401 453.667,54.073 449.197,53.613 431.600 C 53.222 416.645,52.753 410.400,52.019 410.400 C 51.368 410.400,50.800 408.204,50.799 405.681 C 50.797 403.608,50.597 402.682,49.915 401.600 C 48.936 400.047,48.907 399.652,48.042 375.800 C 47.562 362.586,47.042 357.218,46.063 355.400 C 45.709 354.740,45.303 352.760,45.163 351.000 C 45.023 349.240,44.589 346.990,44.200 346.000 C 43.387 343.936,43.045 339.375,42.434 322.400 C 41.929 308.395,41.672 305.170,41.000 304.400 C 40.400 303.714,39.202 297.715,39.196 295.369 C 39.193 294.506,38.908 292.900,38.562 291.800 C 37.717 289.115,37.210 281.239,36.874 265.600 C 36.592 252.492,36.487 251.634,35.022 250.418 C 34.564 250.038,34.400 249.137,34.400 247.001 C 34.400 245.406,34.154 243.402,33.852 242.548 C 32.565 238.900,32.033 232.869,31.600 217.035 C 31.155 200.741,30.870 197.807,29.550 195.938 C 29.002 195.163,28.800 194.174,28.800 192.271 C 28.800 190.605,28.527 189.030,28.043 187.901 C 27.177 185.880,26.597 177.701,26.010 159.200 C 25.526 143.958,25.355 142.285,24.161 141.164 C 23.329 140.381,23.200 139.896,23.200 137.534 C 23.200 135.716,22.877 133.839,22.232 131.904 C 21.134 128.609,20.967 126.048,20.438 104.400 C 20.045 88.310,20.827 90.026,13.237 88.607 C 9.207 87.853,7.419 87.063,6.291 85.539 C 5.828 84.912,5.145 84.400,4.774 84.400 C 4.402 84.400,3.874 84.130,3.600 83.800 C 3.314 83.455,2.442 83.200,1.551 83.200 L 0.000 83.200 0.000 304.600 M396.800 87.553 C 396.470 87.733,394.850 88.198,393.200 88.585 C 388.319 89.730,388.000 90.028,388.000 93.443 C 388.000 95.565,387.851 96.372,387.428 96.534 C 385.935 97.107,385.621 100.384,385.156 120.200 C 384.202 160.879,384.288 158.908,383.400 160.219 C 382.709 161.239,382.572 162.271,382.395 167.800 C 382.235 172.777,382.045 174.422,381.538 175.200 C 380.342 177.037,380.026 182.428,379.596 208.400 C 379.166 234.321,378.888 239.535,377.793 242.156 C 377.360 243.191,377.200 245.166,377.200 249.465 C 377.200 255.311,377.192 255.365,376.127 256.476 L 375.054 257.596 374.736 274.698 C 374.561 284.104,374.233 294.860,374.006 298.600 C 373.780 302.340,373.596 307.521,373.597 310.114 C 373.599 313.337,373.284 316.667,372.600 320.639 C 371.873 324.865,371.600 327.908,371.600 331.801 C 371.600 334.963,371.435 337.255,371.197 337.402 C 369.559 338.414,369.444 339.529,368.897 359.800 C 367.705 403.909,367.891 400.038,366.895 401.600 C 366.086 402.869,366.003 403.504,365.998 408.400 C 365.994 413.690,365.476 418.564,364.830 419.386 C 363.848 420.636,363.590 425.392,363.191 449.600 C 362.760 475.751,362.535 480.009,361.421 483.150 C 360.973 484.412,360.800 486.455,360.800 490.469 C 360.800 495.977,360.788 496.048,359.755 496.937 C 358.805 497.754,358.666 498.268,358.211 502.618 C 357.619 508.289,356.952 510.102,355.042 511.228 C 354.192 511.730,353.479 512.556,353.221 513.337 C 352.634 515.114,350.568 517.520,349.497 517.673 C 349.008 517.743,348.379 518.277,348.101 518.861 C 347.142 520.868,345.372 522.400,344.013 522.400 C 342.003 522.400,341.200 523.032,341.200 524.614 L 341.200 526.000 370.600 526.000 L 400.000 526.000 400.000 306.600 L 400.000 87.200 398.700 87.212 C 397.985 87.219,397.130 87.372,396.800 87.553 M46.400 87.939 C 46.400 88.125,46.024 88.710,45.565 89.239 C 44.579 90.374,44.771 104.900,45.842 110.126 C 46.149 111.626,46.400 114.272,46.400 116.006 C 46.400 119.670,46.985 122.763,48.073 124.850 C 48.649 125.954,48.935 127.720,49.211 131.863 C 49.414 134.908,49.677 137.760,49.796 138.200 C 49.914 138.640,50.263 144.850,50.571 152.000 C 50.879 159.150,51.327 165.507,51.566 166.126 C 51.805 166.745,52.000 168.632,52.000 170.318 C 52.000 172.361,52.254 174.055,52.760 175.392 C 53.831 178.219,54.436 181.504,54.826 186.600 C 55.011 189.020,55.343 191.810,55.564 192.800 C 55.784 193.790,55.975 199.640,55.988 205.800 C 56.008 215.819,56.094 217.267,56.805 219.536 C 57.270 221.020,57.600 223.195,57.600 224.781 C 57.600 226.847,57.871 228.147,58.743 230.261 C 60.088 233.525,60.494 237.832,61.431 258.800 C 61.750 265.950,62.207 272.610,62.445 273.600 C 62.684 274.590,62.959 277.110,63.057 279.200 C 63.200 282.270,63.438 283.416,64.296 285.163 C 65.205 287.012,65.403 288.082,65.667 292.553 C 65.837 295.429,66.075 298.235,66.196 298.791 C 66.317 299.346,66.692 305.380,67.031 312.200 C 67.369 319.020,67.801 326.130,67.991 328.000 C 68.181 329.870,68.351 332.717,68.368 334.327 C 68.394 336.728,68.567 337.482,69.331 338.527 C 70.678 340.369,71.148 342.432,71.351 347.400 C 71.450 349.820,71.730 353.870,71.972 356.400 C 72.215 358.930,72.587 365.230,72.799 370.400 C 73.312 382.886,74.398 391.208,76.010 395.000 C 76.554 396.281,77.925 417.885,77.977 426.000 C 77.998 429.381,78.216 431.289,78.800 433.200 C 79.313 434.879,79.595 436.956,79.597 439.064 C 79.599 441.602,79.867 443.145,80.800 446.000 C 81.797 449.051,82.000 450.326,82.000 453.536 C 82.000 455.661,82.270 458.811,82.600 460.535 C 82.930 462.260,83.203 465.500,83.206 467.735 C 83.214 473.883,83.908 484.464,84.627 489.400 C 85.620 496.219,85.659 496.399,86.144 496.410 C 86.748 496.424,89.200 500.065,89.200 500.948 C 89.200 501.361,89.806 501.915,90.700 502.320 C 92.936 503.333,325.253 503.586,327.772 502.578 C 330.469 501.499,331.565 500.441,332.862 497.668 L 334.109 495.001 334.430 485.001 C 334.760 474.716,334.890 473.760,336.347 470.905 C 337.100 469.428,337.200 468.563,337.199 463.516 C 337.198 459.914,337.490 455.803,337.987 452.400 C 338.609 448.145,338.865 443.100,339.199 428.600 C 339.914 397.468,340.243 393.128,342.236 388.486 C 342.635 387.556,342.800 385.473,342.800 381.344 C 342.800 377.692,343.009 374.672,343.360 373.258 C 343.769 371.607,343.990 366.499,344.182 354.270 C 344.336 344.474,344.684 335.274,345.022 332.070 C 345.339 329.062,345.599 324.115,345.599 321.077 C 345.600 315.740,345.993 312.641,346.875 311.027 C 347.864 309.218,348.107 307.345,348.409 299.200 C 348.585 294.470,348.903 290.047,349.116 289.371 C 349.329 288.695,349.630 280.775,349.785 271.771 C 349.940 262.767,350.249 254.230,350.470 252.800 C 350.692 251.370,350.992 245.954,351.137 240.765 C 351.398 231.402,351.408 231.317,352.465 229.765 C 353.516 228.222,353.533 228.082,353.715 220.000 C 353.828 214.986,354.147 210.479,354.536 208.400 C 355.000 205.914,355.290 200.159,355.611 187.000 C 356.308 158.504,356.617 152.073,357.392 150.000 C 357.763 149.010,358.162 147.795,358.279 147.300 C 358.397 146.805,358.652 146.400,358.847 146.400 C 359.041 146.400,359.200 143.654,359.200 140.297 C 359.200 136.941,359.380 133.566,359.601 132.797 C 360.496 129.677,360.769 124.174,360.862 107.311 L 360.960 89.622 360.010 88.611 L 359.061 87.600 202.730 87.600 C 116.749 87.600,46.400 87.752,46.400 87.939 M214.000 169.209 C 224.101 169.725,225.445 169.959,228.059 171.664 C 230.899 173.516,231.972 173.887,236.000 174.406 C 240.906 175.038,240.850 175.018,242.600 176.793 C 244.236 178.453,246.303 179.600,247.658 179.600 C 249.022 179.600,253.511 181.892,254.196 182.938 C 254.564 183.500,255.482 184.163,256.235 184.412 C 256.989 184.660,258.545 185.794,259.695 186.932 C 261.944 189.158,263.559 190.354,265.983 191.591 C 266.828 192.022,267.904 192.998,268.375 193.760 C 268.846 194.521,269.899 195.707,270.715 196.394 C 271.532 197.082,272.565 197.949,273.012 198.322 C 273.458 198.695,274.237 199.673,274.742 200.495 C 275.246 201.318,276.256 202.488,276.986 203.095 C 277.715 203.703,278.990 205.100,279.820 206.200 C 280.649 207.300,281.479 208.260,281.664 208.333 C 281.849 208.407,282.000 208.709,282.000 209.004 C 282.000 209.300,282.510 209.960,283.134 210.471 C 284.628 211.696,285.784 213.696,286.568 216.416 C 286.987 217.865,287.664 219.062,288.527 219.876 C 290.057 221.318,291.250 223.619,292.210 226.976 C 292.816 229.096,293.757 230.858,295.025 232.243 C 295.505 232.767,296.053 235.170,297.022 241.000 C 297.388 243.200,297.938 246.016,298.244 247.258 C 298.550 248.499,298.800 250.890,298.800 252.571 C 298.800 255.132,298.978 255.964,299.900 257.713 C 301.497 260.743,301.580 270.723,300.031 273.600 C 299.277 275.001,299.002 276.288,298.788 279.400 C 298.638 281.600,298.116 285.380,297.629 287.800 C 297.142 290.220,296.578 293.441,296.376 294.959 C 296.130 296.795,295.638 298.308,294.904 299.483 C 293.086 302.390,292.076 304.519,291.811 306.000 C 291.534 307.553,289.971 310.800,289.501 310.800 C 289.335 310.800,289.200 311.040,289.200 311.332 C 289.200 311.625,288.749 312.106,288.197 312.402 C 287.536 312.755,287.053 313.496,286.782 314.569 C 286.082 317.339,285.071 319.309,283.277 321.396 C 280.323 324.833,279.913 325.355,279.511 326.189 C 279.296 326.635,278.342 327.630,277.392 328.400 C 276.441 329.170,275.462 330.250,275.215 330.800 C 274.584 332.204,272.523 334.400,271.837 334.400 C 271.521 334.400,270.483 335.451,269.531 336.735 C 267.936 338.886,264.611 341.600,263.570 341.600 C 263.328 341.600,262.021 342.648,260.665 343.930 C 259.309 345.211,257.390 346.729,256.400 347.304 C 255.410 347.878,254.089 348.900,253.465 349.575 C 252.841 350.250,251.851 350.908,251.265 351.038 C 248.301 351.695,243.887 353.673,242.980 354.751 C 241.653 356.327,239.619 357.065,234.516 357.818 C 231.166 358.313,229.976 358.659,229.200 359.364 C 225.932 362.333,222.406 362.784,202.600 362.764 C 183.097 362.745,180.262 362.382,176.938 359.484 C 175.982 358.650,174.048 358.139,169.820 357.602 C 166.418 357.170,163.531 355.966,162.850 354.694 C 162.344 353.748,156.480 351.200,154.809 351.200 C 154.382 351.200,153.261 350.462,152.317 349.561 C 151.373 348.659,149.867 347.529,148.971 347.050 C 148.076 346.571,146.321 345.149,145.072 343.890 C 143.822 342.630,142.610 341.600,142.378 341.600 C 141.744 341.600,137.200 338.429,137.200 337.986 C 137.200 337.370,134.359 334.400,133.769 334.400 C 133.473 334.400,132.227 333.041,130.999 331.381 C 129.771 329.720,128.532 328.272,128.247 328.163 C 127.961 328.053,126.846 326.757,125.768 325.282 C 124.690 323.807,123.114 321.893,122.265 321.028 C 121.264 320.010,120.463 318.649,119.987 317.161 C 118.978 314.001,118.235 312.668,116.814 311.473 C 116.146 310.911,115.600 310.275,115.600 310.059 C 115.600 309.843,115.158 308.785,114.617 307.708 C 114.076 306.631,113.507 304.962,113.353 303.997 C 113.181 302.918,112.699 301.898,112.101 301.343 C 111.023 300.344,109.548 296.081,108.867 292.000 C 107.813 285.675,107.477 283.185,107.246 280.000 C 107.044 277.202,106.760 276.140,105.643 274.000 L 104.286 271.400 104.537 266.200 C 104.774 261.271,105.805 256.620,106.797 256.000 C 106.974 255.890,107.205 254.090,107.311 252.000 C 107.417 249.910,107.716 246.940,107.975 245.400 C 108.234 243.860,108.628 241.430,108.851 240.000 C 109.507 235.793,110.738 232.099,111.951 230.701 C 112.571 229.986,113.184 228.729,113.313 227.909 C 113.664 225.673,115.571 221.532,116.773 220.400 C 118.276 218.983,118.950 217.782,119.969 214.705 C 120.460 213.222,121.254 211.692,121.733 211.305 C 122.707 210.517,125.200 207.433,125.200 207.016 C 125.200 206.610,127.342 203.824,127.800 203.634 C 128.450 203.364,130.439 201.116,131.470 199.486 C 131.997 198.654,133.411 197.343,134.614 196.574 C 135.816 195.805,136.800 194.965,136.800 194.707 C 136.800 194.104,139.218 191.600,139.800 191.600 C 140.452 191.600,143.457 189.354,146.251 186.779 C 147.598 185.536,149.229 184.414,149.875 184.285 C 150.610 184.138,151.223 183.667,151.516 183.025 C 151.773 182.461,152.235 182.000,152.542 182.000 C 152.850 182.000,153.301 181.760,153.544 181.467 C 153.787 181.174,155.024 180.611,156.293 180.216 C 161.180 178.694,161.894 178.353,162.943 177.037 C 164.286 175.353,165.300 174.961,169.771 174.400 C 173.788 173.895,175.244 173.379,178.212 171.409 C 181.509 169.221,196.350 168.308,214.000 169.209 " stroke="none" fill="#ffffff" fill-rule="evenodd"></path><path id="path3" d="M27.400 3.997 C 22.920 4.301,20.841 5.188,19.775 7.248 C 19.447 7.882,18.958 8.400,18.687 8.400 C 16.895 8.400,15.291 12.292,15.230 16.787 C 15.191 19.624,14.175 22.227,12.503 23.768 C 11.008 25.147,10.198 27.832,9.746 32.913 C 9.341 37.470,8.312 41.039,7.140 41.961 C 5.874 42.957,4.621 47.123,4.001 52.400 C 3.189 59.306,3.381 58.800,1.582 58.800 L 0.000 58.800 0.000 63.400 L 0.000 68.000 1.588 68.000 C 3.748 68.000,5.452 64.709,5.990 59.501 C 6.518 54.379,7.743 50.234,9.497 47.629 C 10.005 46.875,10.503 45.885,10.604 45.429 C 10.706 44.973,11.258 42.260,11.833 39.400 C 12.407 36.540,13.040 33.401,13.240 32.423 C 13.441 31.446,13.972 30.256,14.420 29.778 C 15.299 28.843,17.370 22.185,17.783 18.970 C 18.363 14.441,18.384 14.392,20.625 12.307 C 21.821 11.193,22.800 10.048,22.800 9.761 C 22.800 8.694,25.372 7.293,28.200 6.820 C 33.560 5.924,377.743 6.416,380.000 7.323 C 381.332 7.859,382.216 8.626,383.400 10.276 C 384.280 11.503,385.369 12.675,385.820 12.881 C 386.777 13.318,387.676 16.055,388.618 21.400 C 389.461 26.182,390.303 29.056,391.369 30.781 C 392.808 33.110,393.600 35.682,394.023 39.403 C 394.384 42.584,395.876 47.401,396.903 48.700 C 397.120 48.975,397.906 49.200,398.649 49.200 L 400.000 49.200 400.000 45.000 L 400.000 40.800 398.683 40.800 C 397.171 40.800,396.405 38.957,396.395 35.294 C 396.381 30.383,394.309 23.820,392.519 23.020 C 391.583 22.601,391.381 21.811,390.815 16.341 C 390.383 12.165,389.267 9.474,387.674 8.769 C 387.048 8.491,386.315 7.766,386.045 7.157 C 385.310 5.496,382.497 4.315,378.428 3.958 C 374.172 3.584,32.916 3.622,27.400 3.997 M38.600 26.996 C 37.280 27.272,35.912 27.620,35.561 27.768 C 33.817 28.506,32.000 33.034,32.000 36.642 C 32.000 38.922,30.662 43.077,28.815 46.533 C 25.684 52.390,25.650 61.864,28.750 64.419 L 30.182 65.600 202.890 65.600 L 375.598 65.600 377.162 64.187 C 380.709 60.983,379.902 49.085,375.820 44.400 C 375.533 44.070,375.203 43.260,375.088 42.600 C 374.973 41.940,374.411 39.244,373.839 36.609 C 373.268 33.974,372.800 31.444,372.800 30.987 C 372.800 29.637,370.290 27.533,368.118 27.064 C 365.069 26.405,41.743 26.338,38.600 26.996 M365.400 29.200 C 365.536 29.420,366.092 29.600,366.636 29.600 C 367.218 29.600,367.726 29.888,367.870 30.300 C 368.005 30.685,368.614 31.540,369.223 32.200 C 370.403 33.479,371.384 37.252,372.432 44.542 C 372.884 47.686,373.111 48.289,374.453 49.914 C 376.740 52.681,377.700 57.000,376.496 59.107 L 375.643 60.600 202.827 60.700 L 30.011 60.801 29.364 59.300 C 28.824 58.048,28.790 57.432,29.158 55.576 C 29.401 54.353,29.600 53.024,29.600 52.624 C 29.600 52.224,30.220 51.211,30.977 50.372 C 32.906 48.237,33.460 46.144,34.630 36.563 C 34.741 35.657,35.448 33.967,36.215 32.777 C 36.977 31.594,37.600 30.503,37.600 30.351 C 37.600 30.200,38.365 29.812,39.300 29.488 C 41.393 28.765,364.954 28.479,365.400 29.200 M0.000 80.800 L 0.000 83.200 1.551 83.200 C 2.442 83.200,3.314 83.455,3.600 83.800 C 3.874 84.130,4.402 84.400,4.774 84.400 C 5.145 84.400,5.828 84.912,6.291 85.539 C 7.419 87.063,9.207 87.853,13.237 88.607 C 20.827 90.026,20.045 88.310,20.438 104.400 C 20.967 126.048,21.134 128.609,22.232 131.904 C 22.877 133.839,23.200 135.716,23.200 137.534 C 23.200 139.896,23.329 140.381,24.161 141.164 C 25.355 142.285,25.526 143.958,26.010 159.200 C 26.597 177.701,27.177 185.880,28.043 187.901 C 28.527 189.030,28.800 190.605,28.800 192.271 C 28.800 194.174,29.002 195.163,29.550 195.938 C 30.870 197.807,31.155 200.741,31.600 217.035 C 32.033 232.869,32.565 238.900,33.852 242.548 C 34.154 243.402,34.400 245.406,34.400 247.001 C 34.400 249.137,34.564 250.038,35.022 250.418 C 36.487 251.634,36.592 252.492,36.874 265.600 C 37.210 281.239,37.717 289.115,38.562 291.800 C 38.908 292.900,39.193 294.506,39.196 295.369 C 39.202 297.715,40.400 303.714,41.000 304.400 C 41.672 305.170,41.929 308.395,42.434 322.400 C 43.045 339.375,43.387 343.936,44.200 346.000 C 44.589 346.990,45.023 349.240,45.163 351.000 C 45.303 352.760,45.709 354.740,46.063 355.400 C 47.042 357.218,47.562 362.586,48.042 375.800 C 48.907 399.652,48.936 400.047,49.915 401.600 C 50.597 402.682,50.797 403.608,50.799 405.681 C 50.800 408.204,51.368 410.400,52.019 410.400 C 52.753 410.400,53.222 416.645,53.613 431.600 C 54.073 449.197,54.401 453.667,55.369 455.540 C 55.796 456.366,56.000 457.841,56.000 460.110 C 56.000 463.152,56.091 463.546,56.984 464.385 C 58.289 465.611,58.375 466.397,58.803 481.000 C 59.346 499.578,59.765 502.530,62.169 504.717 C 63.180 505.637,63.622 506.537,64.168 508.784 C 65.148 512.812,65.832 514.277,67.102 515.065 C 68.807 516.122,70.400 517.692,70.400 518.314 C 70.400 519.549,72.970 521.380,76.700 522.802 C 77.812 523.226,78.000 523.492,78.000 524.649 L 78.000 526.000 81.800 526.000 L 85.600 526.000 85.600 524.696 C 85.600 523.798,85.334 523.226,84.745 522.859 C 82.826 521.660,81.307 520.934,79.600 520.399 C 77.857 519.852,73.600 517.016,73.600 516.401 C 73.600 516.234,72.407 514.809,70.950 513.235 C 67.018 508.988,66.053 506.680,65.169 499.400 C 64.773 496.144,64.149 494.000,63.597 494.000 C 63.127 494.000,62.779 491.856,62.398 486.600 C 62.207 483.960,61.867 480.439,61.644 478.775 C 61.421 477.111,61.132 471.711,61.003 466.775 C 60.873 461.839,60.511 456.180,60.197 454.200 C 59.883 452.220,59.357 448.255,59.028 445.390 C 58.674 442.316,58.140 439.610,57.724 438.790 C 56.955 437.271,56.678 434.311,56.019 420.600 C 55.291 405.460,54.929 401.055,54.261 399.200 C 53.843 398.043,53.610 396.097,53.606 393.750 C 53.602 391.407,53.370 389.474,52.958 388.350 C 51.547 384.502,51.572 384.724,50.434 366.000 C 50.240 362.810,49.962 357.500,49.817 354.200 C 49.672 350.900,49.367 347.390,49.140 346.400 C 48.914 345.410,48.588 342.590,48.417 340.132 C 48.180 336.745,47.909 335.342,47.294 334.332 C 46.663 333.297,46.422 331.976,46.208 328.400 C 46.057 325.870,45.759 322.630,45.545 321.200 C 45.078 318.076,44.477 309.031,44.030 298.400 C 43.850 294.110,43.499 289.971,43.251 289.203 C 43.003 288.434,42.800 286.596,42.800 285.117 C 42.800 283.330,42.519 281.721,41.963 280.315 C 40.569 276.792,39.364 265.331,39.008 252.200 C 38.850 246.346,38.476 241.124,37.980 237.842 C 37.551 235.005,37.199 231.585,37.198 230.242 C 37.195 227.657,36.584 224.800,36.033 224.800 C 35.295 224.800,34.815 220.802,34.184 209.400 C 33.819 202.800,33.385 194.951,33.219 191.957 C 33.053 188.964,32.781 186.293,32.615 186.024 C 32.448 185.754,32.147 182.744,31.946 179.335 C 31.630 173.967,31.449 172.875,30.591 171.182 C 29.737 169.497,29.600 168.685,29.600 165.311 C 29.600 163.157,29.405 160.766,29.167 159.997 C 28.929 159.229,28.578 155.270,28.386 151.200 C 27.774 138.184,27.222 130.788,26.805 130.010 C 26.582 129.593,26.400 127.845,26.400 126.124 C 26.400 124.403,26.213 122.366,25.985 121.597 C 24.950 118.119,24.000 112.458,24.000 109.775 C 24.000 108.160,23.730 105.802,23.400 104.535 C 22.993 102.973,22.800 100.260,22.800 96.100 C 22.800 90.836,22.691 89.754,22.030 88.458 C 20.950 86.342,19.036 84.400,18.029 84.400 C 13.858 84.400,4.811 80.980,3.480 78.900 C 3.304 78.625,2.449 78.400,1.580 78.400 L 0.000 78.400 0.000 80.800 M392.400 83.420 C 390.310 83.953,388.208 84.391,387.729 84.394 C 383.933 84.419,383.348 88.819,382.061 127.000 C 381.762 135.848,381.710 136.284,380.679 138.400 C 379.629 140.556,379.608 140.755,379.604 148.450 C 379.601 154.776,379.472 156.639,378.938 158.050 C 378.252 159.861,378.253 159.853,377.187 190.000 C 376.116 220.277,376.306 217.565,375.092 219.887 C 374.045 221.887,373.999 222.225,373.979 228.087 C 373.968 231.449,373.779 235.460,373.558 237.000 C 373.160 239.783,372.697 249.679,372.053 269.200 C 371.867 274.810,371.526 280.030,371.294 280.800 C 371.061 281.570,370.785 286.160,370.679 291.000 C 370.493 299.503,370.451 299.869,369.443 301.858 C 368.476 303.765,368.399 304.307,368.387 309.258 C 368.380 312.196,368.188 315.860,367.961 317.400 C 367.733 318.940,367.370 324.790,367.153 330.400 C 366.473 347.943,366.020 359.895,365.705 368.600 C 365.413 376.634,365.352 377.099,364.300 379.275 C 363.214 381.521,363.200 381.654,363.194 389.475 C 363.189 395.905,363.062 397.740,362.516 399.200 C 361.994 400.600,361.777 403.179,361.539 410.800 C 361.243 420.327,360.697 434.890,360.040 450.800 C 359.735 458.168,359.457 460.400,358.841 460.400 C 358.146 460.400,357.629 464.476,357.444 471.400 C 357.333 475.580,357.036 479.720,356.784 480.600 C 356.533 481.480,356.182 486.700,356.006 492.200 C 355.640 503.623,354.889 507.238,352.683 508.216 C 352.198 508.431,351.463 509.460,351.012 510.556 C 350.132 512.691,348.078 515.187,347.172 515.223 C 346.857 515.235,345.821 516.315,344.869 517.623 C 343.477 519.534,342.922 520.000,342.033 520.000 C 341.425 520.000,339.864 520.522,338.564 521.160 C 337.264 521.798,335.795 522.440,335.300 522.587 C 334.564 522.805,334.400 523.141,334.400 524.427 L 334.400 526.000 337.800 526.000 L 341.200 526.000 341.200 524.614 C 341.200 523.032,342.003 522.400,344.013 522.400 C 345.372 522.400,347.142 520.868,348.101 518.861 C 348.379 518.277,349.008 517.743,349.497 517.673 C 350.568 517.520,352.634 515.114,353.221 513.337 C 353.479 512.556,354.192 511.730,355.042 511.228 C 356.952 510.102,357.619 508.289,358.211 502.618 C 358.666 498.268,358.805 497.754,359.755 496.937 C 360.788 496.048,360.800 495.977,360.800 490.469 C 360.800 486.455,360.973 484.412,361.421 483.150 C 362.535 480.009,362.760 475.751,363.191 449.600 C 363.590 425.392,363.848 420.636,364.830 419.386 C 365.476 418.564,365.994 413.690,365.998 408.400 C 366.003 403.504,366.086 402.869,366.895 401.600 C 367.891 400.038,367.705 403.909,368.897 359.800 C 369.444 339.529,369.559 338.414,371.197 337.402 C 371.435 337.255,371.600 334.963,371.600 331.801 C 371.600 327.908,371.873 324.865,372.600 320.639 C 373.284 316.667,373.599 313.337,373.597 310.114 C 373.596 307.521,373.780 302.340,374.006 298.600 C 374.233 294.860,374.561 284.104,374.736 274.698 L 375.054 257.596 376.127 256.476 C 377.192 255.365,377.200 255.311,377.200 249.465 C 377.200 245.166,377.360 243.191,377.793 242.156 C 378.888 239.535,379.166 234.321,379.596 208.400 C 380.026 182.428,380.342 177.037,381.538 175.200 C 382.045 174.422,382.235 172.777,382.395 167.800 C 382.572 162.271,382.709 161.239,383.400 160.219 C 384.288 158.908,384.202 160.879,385.156 120.200 C 385.621 100.384,385.935 97.107,387.428 96.534 C 387.851 96.372,388.000 95.561,388.000 93.420 C 388.000 89.876,390.625 88.350,398.500 87.313 L 400.000 87.116 400.000 84.758 L 400.000 82.400 398.100 82.426 C 397.055 82.440,394.490 82.888,392.400 83.420 M45.332 83.738 C 44.634 84.212,43.960 84.870,43.835 85.200 C 43.709 85.530,43.160 86.610,42.614 87.600 C 41.532 89.565,41.375 91.711,42.028 95.600 C 42.430 97.990,42.960 105.377,43.607 117.600 C 44.431 133.149,44.647 135.226,45.708 137.800 C 46.460 139.623,46.810 141.534,47.164 145.753 C 47.421 148.807,47.797 152.137,48.001 153.153 C 48.204 154.169,48.561 160.220,48.795 166.600 C 49.028 172.980,49.384 179.100,49.586 180.200 C 49.787 181.300,49.963 183.681,49.976 185.492 C 50.000 188.843,50.703 191.480,51.962 192.940 C 52.638 193.725,52.798 195.507,53.570 210.800 C 54.167 222.645,54.719 230.360,55.147 232.822 C 55.359 234.044,55.657 237.194,55.810 239.822 C 56.050 243.970,56.226 244.837,57.140 246.400 C 58.068 247.986,58.225 248.794,58.459 253.200 C 59.484 272.537,60.059 281.830,60.403 284.621 C 60.621 286.392,60.803 289.092,60.807 290.621 C 60.813 293.216,61.680 297.424,62.781 300.200 C 63.042 300.860,63.345 303.290,63.454 305.600 C 63.562 307.910,63.900 310.880,64.205 312.200 C 64.518 313.557,64.947 319.292,65.194 325.400 C 65.434 331.340,65.718 337.280,65.826 338.600 C 65.933 339.920,66.186 342.980,66.389 345.400 C 66.591 347.820,67.145 351.240,67.619 353.000 C 69.411 359.652,69.946 364.406,70.408 377.800 C 70.621 383.960,71.066 390.995,71.398 393.433 C 71.729 395.871,72.000 398.877,72.000 400.113 C 72.000 402.648,72.884 406.458,73.794 407.847 C 74.127 408.356,74.400 409.438,74.400 410.253 C 74.400 411.068,74.578 412.829,74.795 414.167 C 75.012 415.505,75.393 420.470,75.641 425.200 C 75.890 429.930,76.241 436.230,76.423 439.200 C 76.604 442.170,76.864 447.390,76.999 450.800 C 77.294 458.226,77.297 458.244,78.652 460.229 C 79.620 461.647,79.756 462.305,80.051 467.000 C 80.231 469.860,80.556 473.370,80.773 474.800 C 80.991 476.230,81.370 481.540,81.615 486.600 C 82.164 497.913,81.991 497.102,84.399 499.668 C 85.499 500.841,86.489 502.070,86.599 502.400 C 87.075 503.828,89.658 504.991,92.969 505.267 C 100.743 505.915,325.478 505.632,328.683 504.970 C 331.522 504.384,334.400 502.870,334.400 501.963 C 334.400 501.774,334.940 500.441,335.600 499.000 C 336.260 497.559,336.800 495.844,336.800 495.190 C 336.800 494.535,336.942 494.000,337.117 494.000 C 338.349 494.000,338.885 490.866,339.173 481.970 C 339.334 477.004,339.620 472.691,339.809 472.385 C 339.998 472.080,340.294 467.233,340.468 461.615 C 340.642 455.997,340.974 446.810,341.206 441.200 C 341.438 435.590,341.723 427.220,341.839 422.600 L 342.050 414.200 343.325 411.622 C 344.585 409.076,344.603 408.953,344.857 401.422 C 344.998 397.230,345.304 392.445,345.536 390.789 C 345.768 389.133,346.076 379.863,346.220 370.189 C 346.412 357.219,346.628 352.007,347.041 350.342 C 347.373 349.001,347.607 345.915,347.617 342.742 C 347.636 337.195,347.754 336.322,349.208 331.000 C 350.158 327.523,350.516 322.233,351.172 302.000 C 351.865 280.614,352.310 270.869,352.619 270.370 C 352.790 270.093,353.043 266.063,353.182 261.415 C 353.408 253.816,353.517 252.825,354.268 251.582 C 355.678 249.247,355.781 247.919,356.801 219.000 C 356.995 213.500,357.362 204.860,357.615 199.800 C 357.869 194.740,358.194 186.444,358.338 181.364 L 358.600 172.128 359.800 170.399 L 361.000 168.669 361.230 159.209 C 361.357 154.006,361.614 149.501,361.801 149.198 C 361.989 148.894,362.301 144.046,362.494 138.423 C 363.128 119.966,363.563 109.132,364.028 100.200 C 364.750 86.322,364.602 85.522,360.998 83.816 L 358.850 82.800 202.725 82.838 L 46.600 82.876 45.332 83.738 M360.010 88.611 L 360.960 89.622 360.862 107.311 C 360.769 124.174,360.496 129.677,359.601 132.797 C 359.380 133.566,359.200 136.941,359.200 140.297 C 359.200 143.654,359.041 146.400,358.847 146.400 C 358.652 146.400,358.397 146.805,358.279 147.300 C 358.162 147.795,357.763 149.010,357.392 150.000 C 356.617 152.073,356.308 158.504,355.611 187.000 C 355.290 200.159,355.000 205.914,354.536 208.400 C 354.147 210.479,353.828 214.986,353.715 220.000 C 353.533 228.082,353.516 228.222,352.465 229.765 C 351.408 231.317,351.398 231.402,351.137 240.765 C 350.992 245.954,350.692 251.370,350.470 252.800 C 350.249 254.230,349.940 262.767,349.785 271.771 C 349.630 280.775,349.329 288.695,349.116 289.371 C 348.903 290.047,348.585 294.470,348.409 299.200 C 348.107 307.345,347.864 309.218,346.875 311.027 C 345.993 312.641,345.600 315.740,345.599 321.077 C 345.599 324.115,345.339 329.062,345.022 332.070 C 344.684 335.274,344.336 344.474,344.182 354.270 C 343.990 366.499,343.769 371.607,343.360 373.258 C 343.009 374.672,342.800 377.692,342.800 381.344 C 342.800 385.473,342.635 387.556,342.236 388.486 C 340.243 393.128,339.914 397.468,339.199 428.600 C 338.865 443.100,338.609 448.145,337.987 452.400 C 337.490 455.803,337.198 459.914,337.199 463.516 C 337.200 468.563,337.100 469.428,336.347 470.905 C 334.890 473.760,334.760 474.716,334.430 485.001 L 334.109 495.001 332.862 497.668 C 331.565 500.441,330.469 501.499,327.772 502.578 C 325.253 503.586,92.936 503.333,90.700 502.320 C 89.806 501.915,89.200 501.361,89.200 500.948 C 89.200 500.065,86.748 496.424,86.144 496.410 C 85.659 496.399,85.620 496.219,84.627 489.400 C 83.908 484.464,83.214 473.883,83.206 467.735 C 83.203 465.500,82.930 462.260,82.600 460.535 C 82.270 458.811,82.000 455.661,82.000 453.536 C 82.000 450.326,81.797 449.051,80.800 446.000 C 79.867 443.145,79.599 441.602,79.597 439.064 C 79.595 436.956,79.313 434.879,78.800 433.200 C 78.216 431.289,77.998 429.381,77.977 426.000 C 77.925 417.885,76.554 396.281,76.010 395.000 C 74.398 391.208,73.312 382.886,72.799 370.400 C 72.587 365.230,72.215 358.930,71.972 356.400 C 71.730 353.870,71.450 349.820,71.351 347.400 C 71.148 342.432,70.678 340.369,69.331 338.527 C 68.567 337.482,68.394 336.728,68.368 334.327 C 68.351 332.717,68.181 329.870,67.991 328.000 C 67.801 326.130,67.369 319.020,67.031 312.200 C 66.692 305.380,66.317 299.346,66.196 298.791 C 66.075 298.235,65.837 295.429,65.667 292.553 C 65.403 288.082,65.205 287.012,64.296 285.163 C 63.438 283.416,63.200 282.270,63.057 279.200 C 62.959 277.110,62.684 274.590,62.445 273.600 C 62.207 272.610,61.750 265.950,61.431 258.800 C 60.494 237.832,60.088 233.525,58.743 230.261 C 57.871 228.147,57.600 226.847,57.600 224.781 C 57.600 223.195,57.270 221.020,56.805 219.536 C 56.094 217.267,56.008 215.819,55.988 205.800 C 55.975 199.640,55.784 193.790,55.564 192.800 C 55.343 191.810,55.011 189.020,54.826 186.600 C 54.436 181.504,53.831 178.219,52.760 175.392 C 52.254 174.055,52.000 172.361,52.000 170.318 C 52.000 168.632,51.805 166.745,51.566 166.126 C 51.327 165.507,50.879 159.150,50.571 152.000 C 50.263 144.850,49.914 138.640,49.796 138.200 C 49.677 137.760,49.414 134.908,49.211 131.863 C 48.935 127.720,48.649 125.954,48.073 124.850 C 46.985 122.763,46.400 119.670,46.400 116.006 C 46.400 114.272,46.149 111.626,45.842 110.126 C 44.771 104.900,44.579 90.374,45.565 89.239 C 46.024 88.710,46.400 88.125,46.400 87.939 C 46.400 87.752,116.749 87.600,202.730 87.600 L 359.061 87.600 360.010 88.611 M193.600 169.071 C 183.929 169.434,180.376 169.973,178.212 171.409 C 175.244 173.379,173.788 173.895,169.771 174.400 C 165.300 174.961,164.286 175.353,162.943 177.037 C 161.894 178.353,161.180 178.694,156.293 180.216 C 155.024 180.611,153.787 181.174,153.544 181.467 C 153.301 181.760,152.850 182.000,152.542 182.000 C 152.235 182.000,151.773 182.461,151.516 183.025 C 151.223 183.667,150.610 184.138,149.875 184.285 C 149.229 184.414,147.598 185.536,146.251 186.779 C 143.457 189.354,140.452 191.600,139.800 191.600 C 139.218 191.600,136.800 194.104,136.800 194.707 C 136.800 194.965,135.816 195.805,134.614 196.574 C 133.411 197.343,131.997 198.654,131.470 199.486 C 130.439 201.116,128.450 203.364,127.800 203.634 C 127.342 203.824,125.200 206.610,125.200 207.016 C 125.200 207.433,122.707 210.517,121.733 211.305 C 121.254 211.692,120.460 213.222,119.969 214.705 C 118.950 217.782,118.276 218.983,116.773 220.400 C 115.571 221.532,113.664 225.673,113.313 227.909 C 113.184 228.729,112.571 229.986,111.951 230.701 C 110.738 232.099,109.507 235.793,108.851 240.000 C 108.628 241.430,108.234 243.860,107.975 245.400 C 107.716 246.940,107.417 249.910,107.311 252.000 C 107.205 254.090,106.974 255.890,106.797 256.000 C 105.805 256.620,104.774 261.271,104.537 266.200 L 104.286 271.400 105.643 274.000 C 106.760 276.140,107.044 277.202,107.246 280.000 C 107.477 283.185,107.813 285.675,108.867 292.000 C 109.548 296.081,111.023 300.344,112.101 301.343 C 112.699 301.898,113.181 302.918,113.353 303.997 C 113.507 304.962,114.076 306.631,114.617 307.708 C 115.158 308.785,115.600 309.843,115.600 310.059 C 115.600 310.275,116.146 310.911,116.814 311.473 C 118.235 312.668,118.978 314.001,119.987 317.161 C 120.463 318.649,121.264 320.010,122.265 321.028 C 123.114 321.893,124.690 323.807,125.768 325.282 C 126.846 326.757,127.961 328.053,128.247 328.163 C 128.532 328.272,129.771 329.720,130.999 331.381 C 132.227 333.041,133.473 334.400,133.769 334.400 C 134.359 334.400,137.200 337.370,137.200 337.986 C 137.200 338.429,141.744 341.600,142.378 341.600 C 142.610 341.600,143.822 342.630,145.072 343.890 C 146.321 345.149,148.076 346.571,148.971 347.050 C 149.867 347.529,151.373 348.659,152.317 349.561 C 153.261 350.462,154.382 351.200,154.809 351.200 C 156.480 351.200,162.344 353.748,162.850 354.694 C 163.531 355.966,166.418 357.170,169.820 357.602 C 174.048 358.139,175.982 358.650,176.938 359.484 C 180.262 362.382,183.097 362.745,202.600 362.764 C 222.406 362.784,225.932 362.333,229.200 359.364 C 229.976 358.659,231.166 358.313,234.516 357.818 C 239.619 357.065,241.653 356.327,242.980 354.751 C 243.887 353.673,248.301 351.695,251.265 351.038 C 251.851 350.908,252.841 350.250,253.465 349.575 C 254.089 348.900,255.410 347.878,256.400 347.304 C 257.390 346.729,259.309 345.211,260.665 343.930 C 262.021 342.648,263.328 341.600,263.570 341.600 C 264.611 341.600,267.936 338.886,269.531 336.735 C 270.483 335.451,271.521 334.400,271.837 334.400 C 272.523 334.400,274.584 332.204,275.215 330.800 C 275.462 330.250,276.441 329.170,277.392 328.400 C 278.342 327.630,279.296 326.635,279.511 326.189 C 279.913 325.355,280.323 324.833,283.277 321.396 C 285.071 319.309,286.082 317.339,286.782 314.569 C 287.053 313.496,287.536 312.755,288.197 312.402 C 288.749 312.106,289.200 311.625,289.200 311.332 C 289.200 311.040,289.335 310.800,289.501 310.800 C 289.971 310.800,291.534 307.553,291.811 306.000 C 292.076 304.519,293.086 302.390,294.904 299.483 C 295.638 298.308,296.130 296.795,296.376 294.959 C 296.578 293.441,297.142 290.220,297.629 287.800 C 298.116 285.380,298.638 281.600,298.788 279.400 C 299.002 276.288,299.277 275.001,300.031 273.600 C 301.580 270.723,301.497 260.743,299.900 257.713 C 298.978 255.964,298.800 255.132,298.800 252.571 C 298.800 250.890,298.550 248.499,298.244 247.258 C 297.938 246.016,297.388 243.200,297.022 241.000 C 296.053 235.170,295.505 232.767,295.025 232.243 C 293.757 230.858,292.816 229.096,292.210 226.976 C 291.250 223.619,290.057 221.318,288.527 219.876 C 287.664 219.062,286.987 217.865,286.568 216.416 C 285.784 213.696,284.628 211.696,283.134 210.471 C 282.510 209.960,282.000 209.300,282.000 209.004 C 282.000 208.709,281.849 208.407,281.664 208.333 C 281.479 208.260,280.649 207.300,279.820 206.200 C 278.990 205.100,277.715 203.703,276.986 203.095 C 276.256 202.488,275.246 201.318,274.742 200.495 C 274.237 199.673,273.458 198.695,273.012 198.322 C 272.565 197.949,271.532 197.082,270.715 196.394 C 269.899 195.707,268.846 194.521,268.375 193.760 C 267.904 192.998,266.828 192.022,265.983 191.591 C 263.559 190.354,261.944 189.158,259.695 186.932 C 258.545 185.794,256.989 184.660,256.235 184.412 C 255.482 184.163,254.564 183.500,254.196 182.938 C 253.511 181.892,249.022 179.600,247.658 179.600 C 246.303 179.600,244.236 178.453,242.600 176.793 C 240.850 175.018,240.906 175.038,236.000 174.406 C 231.972 173.887,230.899 173.516,228.059 171.664 C 224.535 169.366,211.639 168.396,193.600 169.071 M210.200 171.794 C 211.960 172.112,215.231 172.378,217.469 172.386 C 221.227 172.399,221.631 172.477,222.739 173.410 C 224.423 174.827,233.727 177.200,237.600 177.200 C 238.083 177.200,239.218 177.955,240.178 178.915 C 241.950 180.686,243.419 181.446,247.200 182.545 C 248.650 182.966,249.971 183.724,251.073 184.766 C 251.993 185.636,253.349 186.514,254.086 186.717 C 255.459 187.097,257.319 188.702,258.534 190.556 C 258.911 191.130,259.385 191.600,259.589 191.600 C 259.793 191.600,260.760 192.140,261.738 192.800 C 262.716 193.460,263.687 194.000,263.897 194.000 C 264.106 194.000,265.070 194.928,266.039 196.063 C 267.007 197.198,268.041 198.323,268.336 198.563 C 270.028 199.943,271.972 202.018,273.429 203.997 C 274.341 205.236,275.989 207.151,277.091 208.253 C 278.193 209.355,279.405 210.912,279.786 211.713 C 280.166 212.515,280.775 213.273,281.139 213.398 C 282.195 213.760,283.964 216.380,284.214 217.954 C 284.470 219.562,285.343 221.726,286.103 222.635 C 286.376 222.963,287.162 223.854,287.848 224.616 C 288.716 225.579,289.235 226.708,289.552 228.316 C 289.802 229.589,290.365 231.611,290.803 232.809 C 291.242 234.008,291.600 235.229,291.600 235.522 C 291.600 235.816,292.104 236.808,292.719 237.728 C 296.086 242.756,297.620 279.670,294.832 288.564 C 294.619 289.244,294.250 290.557,294.012 291.482 C 293.774 292.407,293.284 293.459,292.923 293.820 C 292.214 294.529,290.354 299.866,289.539 303.531 C 289.261 304.779,288.884 305.980,288.702 306.200 C 288.519 306.420,287.767 307.275,287.030 308.101 C 285.484 309.833,284.400 311.935,284.400 313.200 C 284.400 314.630,283.297 316.538,281.389 318.411 C 280.405 319.377,279.600 320.370,279.600 320.618 C 279.600 321.022,276.525 324.534,273.823 327.215 C 273.260 327.773,272.800 328.377,272.800 328.558 C 272.800 329.169,270.371 331.955,269.635 332.189 C 269.232 332.317,268.120 333.402,267.164 334.600 C 265.561 336.608,263.526 338.176,260.665 339.606 C 260.041 339.918,258.800 341.044,257.909 342.109 C 256.903 343.310,255.378 344.505,253.891 345.255 C 252.572 345.921,251.051 346.991,250.511 347.633 C 249.971 348.275,249.172 348.800,248.737 348.800 C 247.077 348.800,241.789 351.316,240.282 352.824 C 238.594 354.513,237.387 354.879,230.500 355.796 C 227.103 356.249,226.005 356.579,224.100 357.721 C 220.316 359.989,203.898 361.100,192.858 359.834 C 189.813 359.486,186.597 359.200,185.710 359.200 C 184.577 359.200,183.407 358.785,181.781 357.805 C 180.507 357.039,178.911 356.326,178.233 356.223 C 177.555 356.120,175.110 355.751,172.800 355.403 C 168.396 354.739,165.600 353.806,165.600 353.001 C 165.600 351.968,159.158 348.792,157.074 348.798 C 156.675 348.799,155.916 348.286,155.388 347.659 C 154.860 347.031,153.246 345.912,151.802 345.171 C 150.358 344.430,148.916 343.426,148.596 342.938 C 147.667 341.520,146.069 340.055,144.684 339.352 C 142.016 337.998,139.605 336.246,139.364 335.487 C 139.082 334.599,136.675 332.351,135.534 331.910 C 135.120 331.750,134.661 331.300,134.514 330.910 C 134.138 329.917,130.393 325.155,129.280 324.254 C 128.158 323.347,125.200 319.399,125.200 318.809 C 125.200 318.574,124.745 318.175,124.188 317.922 C 123.142 317.445,122.348 315.944,120.998 311.893 C 120.575 310.624,119.683 308.981,119.015 308.241 C 116.847 305.842,116.436 305.108,115.987 302.836 C 115.186 298.784,114.728 297.441,112.917 293.835 C 110.968 289.954,110.440 286.959,110.406 279.600 C 110.398 277.730,110.125 275.210,109.800 274.000 C 109.032 271.139,109.033 264.138,109.802 259.035 C 110.131 256.854,110.413 253.614,110.428 251.835 C 110.494 244.385,110.930 241.927,112.896 237.925 C 114.843 233.964,115.384 232.432,115.810 229.682 C 116.132 227.602,117.537 224.994,119.184 223.416 C 119.853 222.775,120.401 222.059,120.401 221.825 C 120.406 220.489,122.915 214.876,123.899 214.000 C 125.184 212.857,127.200 210.228,127.200 209.696 C 127.200 209.499,128.025 208.452,129.032 207.369 C 131.300 204.932,134.400 200.977,134.400 200.521 C 134.400 200.335,135.056 199.828,135.859 199.396 C 136.661 198.964,138.118 197.683,139.098 196.549 C 140.077 195.414,141.581 194.170,142.439 193.782 C 143.298 193.395,144.000 192.948,144.000 192.788 C 144.000 192.628,144.522 192.281,145.159 192.017 C 145.797 191.753,147.168 190.562,148.208 189.371 C 149.480 187.912,150.571 187.074,151.549 186.804 C 152.347 186.584,153.733 185.720,154.629 184.883 C 156.173 183.443,158.319 182.407,161.000 181.808 C 162.700 181.428,165.475 179.592,165.962 178.525 C 166.415 177.529,166.423 177.526,172.400 176.605 C 176.676 175.946,180.518 175.005,181.600 174.351 C 181.930 174.152,182.740 173.632,183.400 173.196 C 184.391 172.541,185.333 172.395,188.800 172.358 C 191.110 172.334,194.170 172.089,195.600 171.814 C 199.232 171.117,206.396 171.107,210.200 171.794 " stroke="none" fill="#ffffff" fill-rule="evenodd"></path></g></svg>